<svg width="477.761" height="238.511" xmlns="http://www.w3.org/2000/svg" xmlns:xlink="http://www.w3.org/1999/xlink" id="svg1" overflow="hidden"><defs id="defs1"></defs><g id="layer1" transform="matrix(3.77953 0 0 3.77953 -1801.84 -1270.85)"><path d="M485.956 382.538 492.173 377.776" id="path285" stroke="#000000" stroke-width="0.264583" fill="#F3F3F3"/><path d="M529.298 382.931 535.515 378.168" id="path285-1" stroke="#000000" stroke-width="0.264583" fill="#F3F3F3"/><path d="M492.179 385.636 512.344 385.636 512.344 377.733 492.179 377.733Z" id="path263-9-4" stroke="#000000" stroke-width="0.0851562" stroke-linecap="round" stroke-linejoin="round" fill="none"/><path d="M485.989 390.311 492.207 385.549" id="path285-37-6" stroke="#000000" stroke-width="0.264583" fill="#F3F3F3"/><path d="M506.13 390.476 512.348 385.713" id="path285-37-4" stroke="#000000" stroke-width="0.264583" fill="#F3F3F3"/><path d="M505.799 382.803 512.017 378.04" id="path285-76" stroke="#000000" stroke-width="0.264583" fill="#F3F3F3"/><rect x="529.98" y="353.557" width="4.95785" height="1.87089" id="rect282-8-6" stroke="#F5F5F5" stroke-width="0.271456" fill="#F3F3F3"/><path d="M530.003 353.503 534.908 353.503" id="path280-24-8" stroke="#000000" stroke-width="0.0170313" stroke-linecap="round" stroke-linejoin="round" fill="none"/><rect x="550.022" y="353.557" width="4.95785" height="1.87089" id="rect282-8-8" stroke="#F5F5F5" stroke-width="0.271456" fill="#F3F3F3"/><path d="M550.045 353.503 554.95 353.503" id="path280-24-9" stroke="#000000" stroke-width="0.0170313" stroke-linecap="round" stroke-linejoin="round" fill="none"/><rect x="507.689" y="353.425" width="4.95785" height="1.87089" id="rect282-8" stroke="#F5F5F5" stroke-width="0.271456" fill="#F3F3F3"/><path d="M507.712 353.371 512.617 353.371" id="path280-24" stroke="#000000" stroke-width="0.0170313" stroke-linecap="round" stroke-linejoin="round" fill="none"/><rect x="482.769" y="353.619" width="4.95785" height="1.87089" id="rect282" stroke="#F5F5F5" stroke-width="0.271456" fill="#F3F3F3"/><path d="M575.94 336.253 575.94 362.958" id="path250" stroke="#000000" stroke-width="0.0170313" stroke-linecap="round" stroke-linejoin="round" fill="none"/><path d="M572.156 371.693 572.701 370.058 573.246 371.693Z" id="path251" stroke-width="0.264583" fill-rule="evenodd"/><path d="M599.406 391.858 601.041 392.403 599.406 392.948Z" id="path253" stroke-width="0.264583" fill-rule="evenodd"/><text id="text254" stroke-width="0.264583" font-family="Arial" font-weight="400" font-size="3.27422" xml:space="preserve" x="569.751" y="378.16"><tspan x="569.751" y="378.16"><tspan font-size="3.27422" dx="0" dy="0">1</tspan></tspan></text><path d="M509.474 344.845 509.474 346.48 510.836 346.48 510.836 344.845Z" id="path256" stroke-width="0.264583" fill="#FFFFFF" fill-rule="evenodd"/><path d="M509.474 346.48 510.836 346.48 510.836 344.845 509.474 344.845Z" id="path257" stroke="#000000" stroke-width="0.255469" stroke-linecap="round" stroke-linejoin="round" fill="none"/><path d="M509.474 352.748 509.474 354.11 510.836 354.11 510.836 352.748Z" id="path258" stroke-width="0.264583" fill="#FFFFFF" fill-rule="evenodd"/><path d="M509.474 354.11 510.836 354.11 510.836 352.748 509.474 352.748Z" id="path259" stroke="#000000" stroke-width="0.255469" stroke-linecap="round" stroke-linejoin="round" fill="none"/><text id="text262" stroke-width="0.264583" font-family="Arial" font-weight="400" font-size="2.9931" text-anchor="end" xml:space="preserve" x="507.868" y="345.663"><tspan x="507.868" y="345.663"><tspan font-size="2.9931" dx="0" dy="0">1</tspan></tspan><tspan x="507.868" y="354.383"><tspan font-size="2.9931" dx="0" dy="0">11</tspan></tspan></text><path d="M532.091 345.663 532.091 353.565 552.256 353.565 552.256 345.663Z" id="path262" stroke-width="0.264583" fill="#FFFFFF" fill-rule="evenodd"/><path d="M532.386 353.565 552.256 353.565 552.256 345.662 532.386 345.662Z" id="path263" stroke="#000000" stroke-width="0.0845358" stroke-linecap="round" stroke-linejoin="round" fill="none"/><path d="M531.546 344.845 531.546 346.48 533.181 346.48 533.181 344.845Z" id="path264" stroke-width="0.264583" fill="#FFFFFF" fill-rule="evenodd"/><path d="M531.546 346.48 533.181 346.48 533.181 344.845 531.546 344.845Z" id="path265" stroke="#000000" stroke-width="0.255469" stroke-linecap="round" stroke-linejoin="round" fill="none"/><path d="M551.439 344.845 551.439 346.48 553.074 346.48 553.074 344.845Z" id="path266" stroke-width="0.264583" fill="#FFFFFF" fill-rule="evenodd"/><path d="M551.439 346.48 553.074 346.48 553.074 344.845 551.439 344.845Z" id="path267" stroke="#000000" stroke-width="0.255469" stroke-linecap="round" stroke-linejoin="round" fill="none"/><path d="M531.546 352.748 531.546 354.383 533.181 354.383 533.181 352.748Z" id="path268" stroke-width="0.264583" fill="#FFFFFF" fill-rule="evenodd"/><path d="M531.546 354.383 533.181 354.383 533.181 352.748 531.546 352.748Z" id="path269" stroke="#000000" stroke-width="0.255469" stroke-linecap="round" stroke-linejoin="round" fill="none"/><path d="M551.439 352.748 551.439 354.383 553.074 354.383 553.074 352.748Z" id="path270" stroke-width="0.264583" fill="#FFFFFF" fill-rule="evenodd"/><path d="M551.439 354.383 553.074 354.383 553.074 352.748 551.439 352.748Z" id="path271" stroke="#000000" stroke-width="0.255469" stroke-linecap="round" stroke-linejoin="round" fill="none"/><path d="M510.019 346.753 510.019 348.115" id="path275" stroke="#000000" stroke-width="0.0851562" stroke-linecap="round" stroke-linejoin="round" fill="none"/><path d="M510.291 348.115 512.471 348.115 512.471 349.75" id="path276" stroke="#000000" stroke-width="0.0851562" stroke-linecap="round" stroke-linejoin="round" fill="none"/><path d="M508.111 349.75 508.111 351.113" id="path277" stroke="#000000" stroke-width="0.0851562" stroke-linecap="round" stroke-linejoin="round" fill="none"/><path d="M508.111 351.113 509.746 351.113 509.746 352.748" id="path278" stroke="#000000" stroke-width="0.0851562" stroke-linecap="round" stroke-linejoin="round" fill="none"/><path d="M482.793 353.565 487.698 353.565" id="path280" stroke="#000000" stroke-width="0.0170313" stroke-linecap="round" stroke-linejoin="round" fill="none"/><path d="M484.404 344.845 484.404 346.48 486.039 346.48 486.039 344.845Z" id="path281" stroke-width="0.264583" fill="#FFFFFF" fill-rule="evenodd"/><path d="M484.404 346.48 486.039 346.48 486.039 344.845 484.404 344.845Z" id="path282" stroke="#000000" stroke-width="0.255469" stroke-linecap="round" stroke-linejoin="round" fill="none"/><path d="M484.404 352.748 484.404 354.11 486.039 354.11 486.039 352.748Z" id="path283" stroke-width="0.264583" fill="#FFFFFF" fill-rule="evenodd"/><path d="M484.404 354.11 486.039 354.11 486.039 352.748 484.404 352.748Z" id="path284" stroke="#000000" stroke-width="0.255469" stroke-linecap="round" stroke-linejoin="round" fill="none"/><text id="text285" stroke-width="0.264583" font-family="Arial" font-weight="400" font-size="2.9931" xml:space="preserve" x="481.134" y="345.663"><tspan x="481.134" y="345.663"><tspan font-size="2.9931" dx="0" dy="0">1</tspan></tspan></text><path d="M485.221 346.753 485.221 348.115" id="path288" stroke="#000000" stroke-width="0.0851562" stroke-linecap="round" stroke-linejoin="round" fill="none"/><path d="M485.221 348.115 487.674 348.115 487.674 349.75" id="path289" stroke="#000000" stroke-width="0.0851562" stroke-linecap="round" stroke-linejoin="round" fill="none"/><path d="M483.314 349.75 483.314 351.113" id="path290" stroke="#000000" stroke-width="0.0851562" stroke-linecap="round" stroke-linejoin="round" fill="none"/><path d="M483.314 351.113 484.949 351.113 484.949 352.748" id="path291" stroke="#000000" stroke-width="0.0851562" stroke-linecap="round" stroke-linejoin="round" fill="none"/><text id="text295" stroke-width="0.264583" font-family="Arial" font-weight="400" font-size="2.9931" xml:space="preserve" x="528.004" y="345.663"><tspan x="528.004" y="345.663"><tspan font-size="2.9931" dx="0" dy="0">1</tspan></tspan></text><text id="text297" stroke-width="0.264583" font-family="Arial" font-weight="400" font-size="2.9931" xml:space="preserve" x="553.891" y="345.663"><tspan x="553.891" y="345.663"><tspan font-size="2.9931" dx="0" dy="0">2</tspan></tspan></text><text id="text299" stroke-width="0.264583" font-family="Arial" font-weight="400" font-size="2.9931" xml:space="preserve" x="526.096" y="354.655"><tspan x="526.096" y="354.655"><tspan font-size="2.9931" dx="0" dy="0">11</tspan></tspan></text><text id="text301" stroke-width="0.264583" font-family="Arial" font-weight="400" font-size="2.9931" xml:space="preserve" x="555.254" y="354.655"><tspan x="555.254" y="354.655"><tspan font-size="2.9931" dx="0" dy="0">12</tspan></tspan></text><path d="M485.221 344.028 485.221 341.03" id="path330" stroke="#000000" stroke-width="0.0851562" stroke-linecap="round" stroke-linejoin="round" fill="none"/><path d="M485.494 342.393 489.581 342.393" id="path331" stroke="#000000" stroke-width="0.0851562" stroke-linecap="round" stroke-linejoin="round" fill="none"/><path d="M489.309 341.848 491.216 342.393 489.309 342.938Z" id="path332" stroke-width="0.264583" fill-rule="evenodd"/><path d="M510.019 344.028 510.019 341.03" id="path333" stroke="#000000" stroke-width="0.0851562" stroke-linecap="round" stroke-linejoin="round" fill="none"/><path d="M510.291 342.393 514.379 342.393" id="path334" stroke="#000000" stroke-width="0.0851562" stroke-linecap="round" stroke-linejoin="round" fill="none"/><path d="M514.379 341.848 516.014 342.393 514.379 342.938Z" id="path335" stroke-width="0.264583" fill-rule="evenodd"/><path d="M532.364 344.028 532.364 341.03" id="path336" stroke="#000000" stroke-width="0.0851562" stroke-linecap="round" stroke-linejoin="round" fill="none"/><path d="M532.364 342.393 536.724 342.393" id="path337" stroke="#000000" stroke-width="0.0851562" stroke-linecap="round" stroke-linejoin="round" fill="none"/><path d="M536.451 341.848 538.359 342.393 536.451 342.938Z" id="path338" stroke-width="0.264583" fill-rule="evenodd"/><path d="M552.256 344.028 552.256 341.03" id="path339" stroke="#000000" stroke-width="0.0851562" stroke-linecap="round" stroke-linejoin="round" fill="none"/><path d="M552.529 342.393 556.616 342.393" id="path340" stroke="#000000" stroke-width="0.0851562" stroke-linecap="round" stroke-linejoin="round" fill="none"/><path d="M556.616 341.848 558.251 342.393 556.616 342.938Z" id="path341" stroke-width="0.264583" fill-rule="evenodd"/><text id="text351" stroke-width="0.264583" font-family="Times New Roman" font-weight="400" font-size="2.9931" xml:space="preserve" x="489.036" y="341.303"><tspan x="489.036" y="341.303"><tspan font-size="2.9931" dx="0" dy="0">Δ</tspan></tspan></text><text id="text353" stroke-width="0.264583" font-family="Times New Roman" font-weight="400" font-size="2.9931" xml:space="preserve" x="514.924" y="341.303"><tspan x="514.924" y="341.303"><tspan font-size="2.9931" dx="0" dy="0">Δ</tspan></tspan></text><text id="text355" stroke-width="0.264583" font-family="Times New Roman" font-weight="400" font-size="2.9931" xml:space="preserve" x="537.541" y="341.303"><tspan x="537.541" y="341.303"><tspan font-size="2.9931" dx="0" dy="0">Δ</tspan></tspan></text><text id="text357" stroke-width="0.264583" font-family="Times New Roman" font-weight="400" font-size="2.9931" xml:space="preserve" x="557.706" y="341.303"><tspan x="557.706" y="341.303"><tspan font-size="2.9931" dx="0" dy="0">Δ</tspan></tspan></text><text id="text365" stroke-width="0.264583" font-family="Arial" font-weight="400" font-size="2.9931" xml:space="preserve" x="476.501" y="361.051"><tspan x="476.501" y="361.051"><tspan font-size="2.9931" dx="0" dy="0">EarthSpring</tspan></tspan></text><text id="text367" stroke-width="0.264583" font-family="Arial" font-weight="400" font-size="2.9931" xml:space="preserve" x="505.931" y="361.051"><tspan x="505.931" y="361.051"><tspan font-size="2.9931" dx="0" dy="0">Spring</tspan></tspan></text><text id="text370" stroke-width="0.264583" font-family="Arial" font-weight="400" font-size="2.9931" xml:space="preserve" x="539.281" y="361.681"><tspan x="539.281" y="361.681">I2D4</tspan></text><text id="text375" stroke-width="0.264583" font-family="Times New Roman" font-weight="400" font-size="2.9931" xml:space="preserve" x="600.224" y="397.035"><tspan x="600.224" y="397.035"><tspan font-size="2.9931" dx="0" dy="0">Δ</tspan></tspan></text><text id="text377" stroke-width="0.264583" font-family="Arial" font-weight="400" font-size="3.27422" xml:space="preserve" x="568.802" y="371.721"><tspan x="568.802" y="371.721"><tspan font-size="3.27422" dx="0" dy="0">F</tspan></tspan></text><text id="text381" stroke-width="0.264583" font-family="Arial" font-weight="400" font-size="3.27422" xml:space="preserve" x="577.334" y="396.218"><tspan x="577.334" y="396.218"><tspan font-size="3.27422" dx="0" dy="0">0</tspan><tspan font-size="3.27422" dx="0" dy="0">.</tspan><tspan font-size="3.27422" dx="0" dy="0">2</tspan></tspan></text><path d="M581.148 377.143 572.701 377.143" id="path381" stroke="#C0C0C0" stroke-width="0.0851562" stroke-linecap="round" stroke-linejoin="round" fill="none"/><path d="M579.241 378.505 579.241 392.13" id="path382" stroke="#C0C0C0" stroke-width="0.0851562" stroke-linecap="round" stroke-linejoin="round" fill="none"/><path d="M572.701 392.403 579.241 377.143 597.932 392.159" id="path383" stroke="#000000" stroke-width="0.255469" stroke-linecap="round" stroke-linejoin="round" fill="none"/><path d="M540.365 349.927 541.035 349.927 541.404 349.27 541.714 350.607 542.031 349.266 542.4 350.608 542.725 349.262 543.083 350.606 543.421 349.289 543.738 350.615 543.964 349.912 544.674 349.912" id="path1302-4-3" stroke="#000000" stroke-width="0.222653" stroke-linejoin="bevel" fill="none"/><path d="M584.574 349.238 585.245 349.237 585.613 348.58 585.924 349.917 586.241 348.576 586.609 349.918 586.935 348.572 587.293 349.916 587.631 348.599 587.948 349.925 588.174 349.222 588.884 349.222" id="path1302-4-3-7" stroke="#000000" stroke-width="0.222653" stroke-linejoin="bevel" fill="none"/><path d="M508.095 349.712 508.766 349.711 509.135 349.054 509.445 350.392 509.762 349.05 510.131 350.393 510.456 349.046 510.814 350.391 511.152 349.073 511.469 350.399 511.695 349.697 512.405 349.697" id="path1302-4-3-4" stroke="#000000" stroke-width="0.222653" stroke-linejoin="bevel" fill="none"/><rect x="483.591" y="390.475" width="4.95785" height="1.87089" id="rect282-8-6-8" stroke="#F5F5F5" stroke-width="0.271456" fill="#F3F3F3"/><path d="M483.614 390.421 488.519 390.421" id="path280-24-8-7" stroke="#000000" stroke-width="0.0170313" stroke-linecap="round" stroke-linejoin="round" fill="none"/><rect x="503.633" y="390.475" width="4.95785" height="1.87089" id="rect282-8-8-4" stroke="#F5F5F5" stroke-width="0.271456" fill="#F3F3F3"/><path d="M503.656 390.421 508.561 390.421" id="path280-24-9-2" stroke="#000000" stroke-width="0.0170313" stroke-linecap="round" stroke-linejoin="round" fill="none"/><path d="M485.702 390.483 505.867 390.483 505.867 382.58 485.702 382.58Z" id="path263-9" stroke="#000000" stroke-width="0.0851562" stroke-linecap="round" stroke-linejoin="round" fill="none"/><path d="M485.157 381.763 485.157 383.398 486.792 383.398 486.792 381.763Z" id="path264-3" stroke-width="0.264583" fill="#FFFFFF" fill-rule="evenodd"/><path d="M505.049 381.763 505.049 383.398 506.684 383.398 506.684 381.763Z" id="path266-8" stroke-width="0.264583" fill="#FFFFFF" fill-rule="evenodd"/><path d="M485.157 389.665 485.157 391.3 486.792 391.3 486.792 389.665Z" id="path268-02" stroke-width="0.264583" fill="#FFFFFF" fill-rule="evenodd"/><path d="M485.157 391.3 486.792 391.3 486.792 389.665 485.157 389.665Z" id="path269-8" stroke="#000000" stroke-width="0.255469" stroke-linecap="round" stroke-linejoin="round" fill="none"/><path d="M505.049 389.665 505.049 391.3 506.684 391.3 506.684 389.665Z" id="path270-60" stroke-width="0.264583" fill="#FFFFFF" fill-rule="evenodd"/><path d="M505.049 391.3 506.684 391.3 506.684 389.665 505.049 389.665Z" id="path271-24" stroke="#000000" stroke-width="0.255469" stroke-linecap="round" stroke-linejoin="round" fill="none"/><text id="text295-86" stroke-width="0.264583" font-family="Arial" font-weight="400" font-size="2.9931" xml:space="preserve" x="481.615" y="382.581"><tspan x="481.615" y="382.581"><tspan font-size="2.9931" dx="0" dy="0">1</tspan></tspan></text><text id="text297-0" stroke-width="0.264583" font-family="Arial" font-weight="400" font-size="2.9931" xml:space="preserve" x="507.502" y="382.581"><tspan x="507.502" y="382.581"><tspan font-size="2.9931" dx="0" dy="0">2</tspan></tspan></text><text id="text295-86-2" stroke-width="0.264583" font-family="Arial" font-weight="400" font-size="2.9931" xml:space="preserve" x="493.134" y="377.568"><tspan x="493.134" y="377.568">4<tspan font-size="2.9931"></tspan></tspan></text><text id="text297-0-3" stroke-width="0.264583" font-family="Arial" font-weight="400" font-size="2.9931" xml:space="preserve" x="513.97" y="377.943"><tspan x="513.97" y="377.943"><tspan font-size="2.9931">3</tspan></tspan></text><text id="text299-1" stroke-width="0.264583" font-family="Arial" font-weight="400" font-size="2.9931" xml:space="preserve" x="479.707" y="391.573"><tspan x="479.707" y="391.573"><tspan font-size="2.9931" dx="0" dy="0">11</tspan></tspan></text><text id="text301-3" stroke-width="0.264583" font-family="Arial" font-weight="400" font-size="2.9931" xml:space="preserve" x="508.865" y="391.573"><tspan x="508.865" y="391.573"><tspan font-size="2.9931" dx="0" dy="0">12</tspan></tspan></text><path d="M485.974 380.945 485.974 377.948" id="path336-0" stroke="#000000" stroke-width="0.0851562" stroke-linecap="round" stroke-linejoin="round" fill="none"/><path d="M485.974 379.31 490.334 379.31" id="path337-6" stroke="#000000" stroke-width="0.0851562" stroke-linecap="round" stroke-linejoin="round" fill="none"/><path d="M490.062 378.765 491.969 379.31 490.062 379.855Z" id="path338-6" stroke-width="0.264583" fill-rule="evenodd"/><path d="M505.867 380.945 505.867 377.948" id="path339-18" stroke="#000000" stroke-width="0.0851562" stroke-linecap="round" stroke-linejoin="round" fill="none"/><path d="M506.139 379.31 510.227 379.31" id="path340-4" stroke="#000000" stroke-width="0.0851562" stroke-linecap="round" stroke-linejoin="round" fill="none"/><path d="M510.227 378.765 511.862 379.31 510.227 379.855Z" id="path341-9" stroke-width="0.264583" fill-rule="evenodd"/><text id="text355-6" stroke-width="0.264583" font-family="Times New Roman" font-weight="400" font-size="2.9931" xml:space="preserve" x="487.382" y="377.97"><tspan x="487.382" y="377.97"><tspan font-size="2.9931" dx="0" dy="0">Δ</tspan></tspan></text><text id="text357-8" stroke-width="0.264583" font-family="Times New Roman" font-weight="400" font-size="2.9931" xml:space="preserve" x="508.219" y="378.735"><tspan x="508.219" y="378.735"><tspan font-size="2.9931" dx="0" dy="0">Δ</tspan></tspan></text><text id="text370-1" stroke-width="0.264583" font-family="Arial" font-weight="400" font-size="2.9931" transform="translate(-271.345 195.328)" xml:space="preserve" x="765.072" y="203.376"><tspan x="765.072" y="203.376">I3D8</tspan></text><path d="M485.157 383.398 486.792 383.398 486.792 381.763 485.157 381.763Z" id="path265-19" stroke="#000000" stroke-width="0.255469" stroke-linecap="round" stroke-linejoin="round" fill="none"/><path d="M505.049 383.398 506.684 383.398 506.684 381.763 505.049 381.763Z" id="path267-65" stroke="#000000" stroke-width="0.255469" stroke-linecap="round" stroke-linejoin="round" fill="none"/><path d="M511.616 384.915 511.616 386.55 513.251 386.55 513.251 384.915Z" id="path270-60-7" stroke-width="0.264583" fill="#FFFFFF" fill-rule="evenodd"/><path d="M511.616 386.55 513.251 386.55 513.251 384.915 511.616 384.915Z" id="path271-24-7" stroke="#000000" stroke-width="0.255469" stroke-linecap="round" stroke-linejoin="round" fill="none"/><path d="M491.441 384.716 491.441 386.351 493.076 386.351 493.076 384.716Z" id="path270-60-7-5" stroke-width="0.264583" fill="#FFFFFF" fill-rule="evenodd"/><path d="M491.441 386.351 493.076 386.351 493.076 384.716 491.441 384.716Z" id="path271-24-7-9" stroke="#000000" stroke-width="0.255469" stroke-linecap="round" stroke-linejoin="round" fill="none"/><path d="M491.11 378.612 492.745 378.612 492.745 376.977 491.11 376.977Z" id="path271-24-7-8" stroke="#000000" stroke-width="0.255469" stroke-linecap="round" stroke-linejoin="round" fill="#FFFFFF"/><path d="M511.483 378.877 513.118 378.877 513.118 377.242 511.483 377.242Z" id="path271-24-7-2" stroke="#000000" stroke-width="0.255469" stroke-linecap="round" stroke-linejoin="round" fill="#FFFFFF"/><path d="M512.339 376.512 512.339 373.514" id="path339-18-0" stroke="#000000" stroke-width="0.0851562" stroke-linecap="round" stroke-linejoin="round" fill="none"/><path d="M512.612 374.876 516.699 374.876" id="path340-4-9" stroke="#000000" stroke-width="0.0851562" stroke-linecap="round" stroke-linejoin="round" fill="none"/><path d="M516.699 374.332 518.334 374.876 516.699 375.422Z" id="path341-9-4" stroke-width="0.264583" fill-rule="evenodd"/><path d="M491.82 376.621 491.82 373.624" id="path339-18-1" stroke="#000000" stroke-width="0.0851562" stroke-linecap="round" stroke-linejoin="round" fill="none"/><path d="M492.093 374.986 496.18 374.986" id="path340-4-2" stroke="#000000" stroke-width="0.0851562" stroke-linecap="round" stroke-linejoin="round" fill="none"/><path d="M496.18 374.441 497.815 374.986 496.18 375.531Z" id="path341-9-0" stroke-width="0.264583" fill-rule="evenodd"/><text id="text355-6-6" stroke-width="0.264583" font-family="Times New Roman" font-weight="400" font-size="2.9931" xml:space="preserve" x="494.238" y="373.878"><tspan x="494.238" y="373.878"><tspan font-size="2.9931" dx="0" dy="0">Δ</tspan></tspan></text><text id="text357-8-4" stroke-width="0.264583" font-family="Times New Roman" font-weight="400" font-size="2.9931" xml:space="preserve" x="515.095" y="373.751"><tspan x="515.095" y="373.751"><tspan font-size="2.9931" dx="0" dy="0">Δ</tspan></tspan></text><path d="M529.194 390.675 555.804 385.913" id="path285-77" stroke="#000000" stroke-width="0.264583" fill="#F3F3F3"/><path d="M529.349 382.931 555.959 378.168" id="path285-77-3" stroke="#000000" stroke-width="0.264583" fill="#F3F3F3"/><path d="M535.604 385.821 555.769 385.821 555.769 377.919 535.604 377.919Z" id="path263-9-4-8" stroke="#000000" stroke-width="0.0851562" stroke-linecap="round" stroke-linejoin="round" fill="none"/><path d="M529.414 390.497 535.632 385.734" id="path285-37-6-3" stroke="#000000" stroke-width="0.264583" fill="#F3F3F3"/><path d="M549.555 390.661 555.773 385.899" id="path285-37-4-8" stroke="#000000" stroke-width="0.264583" fill="#F3F3F3"/><path d="M549.224 382.988 555.442 378.226" id="path285-76-3" stroke="#000000" stroke-width="0.264583" fill="#F3F3F3"/><rect x="527.016" y="390.661" width="4.95785" height="1.87089" id="rect282-8-6-8-7" stroke="#F5F5F5" stroke-width="0.271456" fill="#F3F3F3"/><path d="M527.039 390.607 531.944 390.607" id="path280-24-8-7-1" stroke="#000000" stroke-width="0.0170313" stroke-linecap="round" stroke-linejoin="round" fill="none"/><rect x="547.058" y="390.661" width="4.95785" height="1.87089" id="rect282-8-8-4-0" stroke="#F5F5F5" stroke-width="0.271456" fill="#F3F3F3"/><path d="M547.081 390.607 551.986 390.607" id="path280-24-9-2-7" stroke="#000000" stroke-width="0.0170313" stroke-linecap="round" stroke-linejoin="round" fill="none"/><path d="M529.127 390.669 549.292 390.669 549.292 382.766 529.127 382.766Z" id="path263-9-3" stroke="#000000" stroke-width="0.0851562" stroke-linecap="round" stroke-linejoin="round" fill="none"/><path d="M528.582 381.949 528.582 383.584 530.217 383.584 530.217 381.949Z" id="path264-3-4" stroke-width="0.264583" fill="#FFFFFF" fill-rule="evenodd"/><path d="M548.475 381.949 548.475 383.584 550.11 383.584 550.11 381.949Z" id="path266-8-9" stroke-width="0.264583" fill="#FFFFFF" fill-rule="evenodd"/><path d="M528.582 389.851 528.582 391.486 530.217 391.486 530.217 389.851Z" id="path268-02-6" stroke-width="0.264583" fill="#FFFFFF" fill-rule="evenodd"/><path d="M528.582 391.486 530.217 391.486 530.217 389.851 528.582 389.851Z" id="path269-8-5" stroke="#000000" stroke-width="0.255469" stroke-linecap="round" stroke-linejoin="round" fill="none"/><path d="M548.475 389.851 548.475 391.486 550.11 391.486 550.11 389.851Z" id="path270-60-1" stroke-width="0.264583" fill="#FFFFFF" fill-rule="evenodd"/><path d="M548.475 391.486 550.11 391.486 550.11 389.851 548.475 389.851Z" id="path271-24-0" stroke="#000000" stroke-width="0.255469" stroke-linecap="round" stroke-linejoin="round" fill="none"/><text id="text295-86-9" stroke-width="0.264583" font-family="Arial" font-weight="400" font-size="2.9931" xml:space="preserve" x="525.04" y="382.766"><tspan x="525.04" y="382.766"><tspan font-size="2.9931" dx="0" dy="0">1</tspan></tspan></text><text id="text297-0-8" stroke-width="0.264583" font-family="Arial" font-weight="400" font-size="2.9931" xml:space="preserve" x="550.927" y="382.766"><tspan x="550.927" y="382.766"><tspan font-size="2.9931" dx="0" dy="0">2</tspan></tspan></text><text id="text299-1-8" stroke-width="0.264583" font-family="Arial" font-weight="400" font-size="2.9931" xml:space="preserve" x="523.132" y="391.759"><tspan x="523.132" y="391.759"><tspan font-size="2.9931" dx="0" dy="0">11</tspan></tspan></text><text id="text301-3-9" stroke-width="0.264583" font-family="Arial" font-weight="400" font-size="2.9931" xml:space="preserve" x="552.29" y="391.759"><tspan x="552.29" y="391.759"><tspan font-size="2.9931" dx="0" dy="0">12</tspan></tspan></text><path d="M529.4 381.131 529.4 378.134" id="path336-0-5" stroke="#000000" stroke-width="0.0851562" stroke-linecap="round" stroke-linejoin="round" fill="none"/><path d="M529.4 379.496 533.76 379.496" id="path337-6-3" stroke="#000000" stroke-width="0.0851562" stroke-linecap="round" stroke-linejoin="round" fill="none"/><path d="M533.487 378.951 535.395 379.496 533.487 380.041Z" id="path338-6-3" stroke-width="0.264583" fill-rule="evenodd"/><path d="M549.292 381.131 549.292 378.134" id="path339-18-3" stroke="#000000" stroke-width="0.0851562" stroke-linecap="round" stroke-linejoin="round" fill="none"/><path d="M549.531 379.496 553.619 379.496" id="path340-4-7" stroke="#000000" stroke-width="0.0851562" stroke-linecap="round" stroke-linejoin="round" fill="none"/><path d="M553.619 378.951 555.254 379.496 553.619 380.041Z" id="path341-9-43" stroke-width="0.264583" fill-rule="evenodd"/><text id="text355-6-8" stroke-width="0.264583" font-family="Times New Roman" font-weight="400" font-size="2.9931" xml:space="preserve" x="530.807" y="378.156"><tspan x="530.807" y="378.156"><tspan font-size="2.9931" dx="0" dy="0">Δ</tspan></tspan></text><text id="text357-8-0" stroke-width="0.264583" font-family="Times New Roman" font-weight="400" font-size="2.9931" xml:space="preserve" x="551.644" y="378.921"><tspan x="551.644" y="378.921"><tspan font-size="2.9931" dx="0" dy="0">Δ</tspan></tspan></text><path d="M528.582 383.584 530.217 383.584 530.217 381.949 528.582 381.949Z" id="path265-19-9" stroke="#000000" stroke-width="0.255469" stroke-linecap="round" stroke-linejoin="round" fill="none"/><path d="M548.475 383.584 550.11 383.584 550.11 381.949 548.475 381.949Z" id="path267-65-7" stroke="#000000" stroke-width="0.255469" stroke-linecap="round" stroke-linejoin="round" fill="none"/><path d="M555.041 385.1 555.041 386.735 556.676 386.735 556.676 385.1Z" id="path270-60-7-2" stroke-width="0.264583" fill="#FFFFFF" fill-rule="evenodd"/><path d="M555.041 386.735 556.676 386.735 556.676 385.1 555.041 385.1Z" id="path271-24-7-28" stroke="#000000" stroke-width="0.255469" stroke-linecap="round" stroke-linejoin="round" fill="none"/><path d="M534.866 384.902 534.866 386.537 536.501 386.537 536.501 384.902Z" id="path270-60-7-5-2" stroke-width="0.264583" fill="#FFFFFF" fill-rule="evenodd"/><path d="M534.866 386.537 536.501 386.537 536.501 384.902 534.866 384.902Z" id="path271-24-7-9-8" stroke="#000000" stroke-width="0.255469" stroke-linecap="round" stroke-linejoin="round" fill="none"/><path d="M534.535 378.798 536.17 378.798 536.17 377.163 534.535 377.163Z" id="path271-24-7-8-9" stroke="#000000" stroke-width="0.255469" stroke-linecap="round" stroke-linejoin="round" fill="#FFFFFF"/><path d="M554.908 379.063 556.543 379.063 556.543 377.428 554.908 377.428Z" id="path271-24-7-2-0" stroke="#000000" stroke-width="0.255469" stroke-linecap="round" stroke-linejoin="round" fill="#FFFFFF"/><path d="M555.764 376.697 555.764 373.7" id="path339-18-0-7" stroke="#000000" stroke-width="0.0851562" stroke-linecap="round" stroke-linejoin="round" fill="none"/><path d="M555.772 375.062 559.86 375.062" id="path340-4-9-8" stroke="#000000" stroke-width="0.0851562" stroke-linecap="round" stroke-linejoin="round" fill="none"/><path d="M559.86 374.517 561.495 375.062 559.86 375.607Z" id="path341-9-4-1" stroke="#000000" stroke-width="0.264583" fill-rule="evenodd"/><path d="M535.245 376.807 535.245 373.809" id="path339-18-1-5" stroke="#000000" stroke-width="0.0851562" stroke-linecap="round" stroke-linejoin="round" fill="none"/><path d="M535.518 375.172 539.605 375.172" id="path340-4-2-8" stroke="#000000" stroke-width="0.0851562" stroke-linecap="round" stroke-linejoin="round" fill="none"/><path d="M539.605 374.627 541.24 375.172 539.605 375.717Z" id="path341-9-0-6" stroke-width="0.264583" fill-rule="evenodd"/><text id="text355-6-6-1" stroke-width="0.264583" font-family="Times New Roman" font-weight="400" font-size="2.9931" xml:space="preserve" x="537.663" y="374.063"><tspan x="537.663" y="374.063"><tspan font-size="2.9931" dx="0" dy="0">Δ</tspan></tspan></text><text id="text357-8-4-2" stroke-width="0.264583" font-family="Times New Roman" font-weight="400" font-size="2.9931" xml:space="preserve" x="558.52" y="373.936"><tspan x="558.52" y="373.936"><tspan font-size="2.9931" dx="0" dy="0">Δ</tspan></tspan></text><text id="text370-1-9" stroke-width="0.264583" font-family="Arial" font-weight="400" font-size="2.9931" transform="translate(-228.576 195.937)" xml:space="preserve" x="765.072" y="203.376"><tspan x="765.072" y="203.376">I3D6</tspan></text><text id="text299-1-3" stroke-width="0.264583" font-family="Arial" font-weight="400" font-size="2.9931" xml:space="preserve" x="492.985" y="388.042"><tspan x="492.985" y="388.042"><tspan font-size="2.9931" dx="0" dy="0">14</tspan></tspan></text><text id="text301-3-2" stroke-width="0.264583" font-family="Arial" font-weight="400" font-size="2.9931" xml:space="preserve" x="513.882" y="387.294"><tspan x="513.882" y="387.294">13</tspan></text><text id="text295-86-2-2" stroke-width="0.264583" font-family="Arial" font-weight="400" font-size="2.9931" xml:space="preserve" x="537.057" y="377.725"><tspan x="537.057" y="377.725">4<tspan font-size="2.9931"></tspan></tspan></text><text id="text297-0-3-1" stroke-width="0.264583" font-family="Arial" font-weight="400" font-size="2.9931" xml:space="preserve" x="557.364" y="378.099"><tspan x="557.364" y="378.099"><tspan font-size="2.9931">3</tspan></tspan></text><text id="text299-1-3-9" stroke-width="0.264583" font-family="Arial" font-weight="400" font-size="2.9931" xml:space="preserve" x="536.908" y="388.199"><tspan x="536.908" y="388.199"><tspan font-size="2.9931" dx="0" dy="0">14</tspan></tspan></text><text id="text301-3-2-5" stroke-width="0.264583" font-family="Arial" font-weight="400" font-size="2.9931" xml:space="preserve" x="557.275" y="387.451"><tspan x="557.275" y="387.451">13</tspan></text><rect x="573.569" y="352.989" width="4.95785" height="1.87089" id="rect282-8-6-5" stroke="#F5F5F5" stroke-width="0.271456" fill="#F3F3F3"/><path d="M573.592 352.935 578.497 352.935" id="path280-24-8-0" stroke="#000000" stroke-width="0.0170313" stroke-linecap="round" stroke-linejoin="round" fill="none"/><rect x="593.611" y="352.989" width="4.95785" height="1.87089" id="rect282-8-8-8" stroke="#F5F5F5" stroke-width="0.271456" fill="#F3F3F3"/><path d="M593.634 352.935 598.539 352.935" id="path280-24-9-3" stroke="#000000" stroke-width="0.0170313" stroke-linecap="round" stroke-linejoin="round" fill="none"/><path d="M575.975 352.997 595.845 352.997 595.845 345.094 575.975 345.094Z" id="path263-39" stroke="#000000" stroke-width="0.0845358" stroke-linecap="round" stroke-linejoin="round" fill="none"/><path d="M575.135 344.277 575.135 345.912 576.77 345.912 576.77 344.277Z" id="path264-67" stroke-width="0.264583" fill="#FFFFFF" fill-rule="evenodd"/><path d="M575.135 345.912 576.77 345.912 576.77 344.277 575.135 344.277Z" id="path265-9" stroke="#000000" stroke-width="0.255469" stroke-linecap="round" stroke-linejoin="round" fill="none"/><path d="M595.028 344.277 595.028 345.912 596.663 345.912 596.663 344.277Z" id="path266-9" stroke-width="0.264583" fill="#FFFFFF" fill-rule="evenodd"/><path d="M595.028 345.912 596.663 345.912 596.663 344.277 595.028 344.277Z" id="path267-7" stroke="#000000" stroke-width="0.255469" stroke-linecap="round" stroke-linejoin="round" fill="none"/><path d="M575.135 352.179 575.135 353.814 576.77 353.814 576.77 352.179Z" id="path268-69" stroke-width="0.264583" fill="#FFFFFF" fill-rule="evenodd"/><path d="M575.135 353.814 576.77 353.814 576.77 352.179 575.135 352.179Z" id="path269-3" stroke="#000000" stroke-width="0.255469" stroke-linecap="round" stroke-linejoin="round" fill="none"/><path d="M595.028 352.179 595.028 353.814 596.663 353.814 596.663 352.179Z" id="path270-5" stroke-width="0.264583" fill="#FFFFFF" fill-rule="evenodd"/><path d="M595.028 353.814 596.663 353.814 596.663 352.179 595.028 352.179Z" id="path271-7" stroke="#000000" stroke-width="0.255469" stroke-linecap="round" stroke-linejoin="round" fill="none"/><text id="text295-6" stroke-width="0.264583" font-family="Arial" font-weight="400" font-size="2.9931" xml:space="preserve" x="571.593" y="345.094"><tspan x="571.593" y="345.094"><tspan font-size="2.9931" dx="0" dy="0">1</tspan></tspan></text><text id="text297-5" stroke-width="0.264583" font-family="Arial" font-weight="400" font-size="2.9931" xml:space="preserve" x="597.48" y="345.094"><tspan x="597.48" y="345.094"><tspan font-size="2.9931" dx="0" dy="0">2</tspan></tspan></text><text id="text299-16" stroke-width="0.264583" font-family="Arial" font-weight="400" font-size="2.9931" xml:space="preserve" x="569.685" y="354.087"><tspan x="569.685" y="354.087"><tspan font-size="2.9931" dx="0" dy="0">11</tspan></tspan></text><text id="text301-32" stroke-width="0.264583" font-family="Arial" font-weight="400" font-size="2.9931" xml:space="preserve" x="598.843" y="354.087"><tspan x="598.843" y="354.087"><tspan font-size="2.9931" dx="0" dy="0">12</tspan></tspan></text><path d="M575.953 343.459 575.953 340.462" id="path336-5" stroke="#000000" stroke-width="0.0851562" stroke-linecap="round" stroke-linejoin="round" fill="none"/><path d="M575.953 341.824 580.313 341.824" id="path337-36" stroke="#000000" stroke-width="0.0851562" stroke-linecap="round" stroke-linejoin="round" fill="none"/><path d="M580.04 341.279 581.948 341.824 580.04 342.369Z" id="path338-18" stroke-width="0.264583" fill-rule="evenodd"/><path d="M595.845 343.459 595.845 340.462" id="path339-62" stroke="#000000" stroke-width="0.0851562" stroke-linecap="round" stroke-linejoin="round" fill="none"/><path d="M596.118 341.824 600.205 341.824" id="path340-1" stroke="#000000" stroke-width="0.0851562" stroke-linecap="round" stroke-linejoin="round" fill="none"/><path d="M600.205 341.279 601.84 341.824 600.205 342.369Z" id="path341-46" stroke-width="0.264583" fill-rule="evenodd"/><text id="text355-2" stroke-width="0.264583" font-family="Times New Roman" font-weight="400" font-size="2.9931" xml:space="preserve" x="581.13" y="340.734"><tspan x="581.13" y="340.734"><tspan font-size="2.9931" dx="0" dy="0">Δ</tspan></tspan></text><text id="text357-6" stroke-width="0.264583" font-family="Times New Roman" font-weight="400" font-size="2.9931" xml:space="preserve" x="601.295" y="340.734"><tspan x="601.295" y="340.734"><tspan font-size="2.9931" dx="0" dy="0">Δ</tspan></tspan></text><text id="text370-3" stroke-width="0.264583" font-family="Arial" font-weight="400" font-size="2.9931" xml:space="preserve" x="581.69" y="361.681"><tspan x="581.69" y="361.681">IAX4</tspan></text><text id="text370-3-4" stroke-width="0.287667" font-family="Arial" font-weight="400" font-size="3.25424" xml:space="preserve" x="573.57" y="364.419"><tspan x="573.57" y="364.419">C.L</tspan></text><path d="M572.557 392.601 572.675 371.011" id="path314" stroke="#000000" stroke-width="0.264583" fill="#FFFFFF"/><path d="M572.513 392.446 600.836 392.405" id="path321" stroke="#000000" stroke-width="0.264583" fill="#FFFFFF"/><path d="M483.268 349.803 483.938 349.802 484.307 349.145 484.617 350.483 484.934 349.141 485.303 350.483 485.628 349.137 485.986 350.481 486.324 349.164 486.641 350.49 486.867 349.787 487.577 349.787" id="path1302-4-3-2" stroke="#000000" stroke-width="0.222653" stroke-linejoin="bevel" fill="none"/><path d="M495.953 384.623 496.624 384.622 496.992 383.965 497.303 385.302 497.62 383.961 497.988 385.303 498.314 383.957 498.672 385.301 499.01 383.984 499.326 385.31 499.553 384.607 500.263 384.607" id="path1302-4-3-3" stroke="#000000" stroke-width="0.222653" stroke-linejoin="bevel" fill="none"/><path d="M540.015 384.623 540.685 384.622 541.054 383.965 541.364 385.302 541.682 383.961 542.05 385.303 542.375 383.957 542.734 385.301 543.071 383.984 543.388 385.31 543.614 384.607 544.324 384.607" id="path1302-4-3-0" stroke="#000000" stroke-width="0.222653" stroke-linejoin="bevel" fill="none"/><text id="text381-82" stroke-width="0.264583" font-family="Arial" font-weight="400" font-size="3.27422" xml:space="preserve" x="595.325" y="396.502"><tspan x="595.325" y="396.502"><tspan font-size="3.27422" dx="0" dy="0">0</tspan><tspan font-size="3.27422" dx="0" dy="0">.8</tspan><tspan font-size="3.27422"></tspan></tspan></text></g></svg>