<svg width="646.392" height="313.327" xmlns="http://www.w3.org/2000/svg" xmlns:xlink="http://www.w3.org/1999/xlink" id="svg1" overflow="hidden"><defs id="defs1"><pattern xlink:href="#EMFimage0_ref-0" id="pattern70" overflow="hidden" patternTransform="matrix(0.264583 0 0 0.264583 231.365 296.504)"></pattern><pattern width="8" height="8" patternUnits="userSpaceOnUse" id="EMFimage0_ref-0" overflow="hidden"><use width="100%" height="100%" xlink:href="#EMFimage0-5" id="EMFimage0_ign-5"></use></pattern><pattern xlink:href="#EMFimage0_ref-0" id="pattern69" overflow="hidden" patternTransform="matrix(0.264583 0 0 0.264583 231.365 296.504)"></pattern><pattern width="8" height="8" patternUnits="userSpaceOnUse" id="pattern1" overflow="hidden"><use width="100%" height="100%" xlink:href="#EMFimage0-5" id="use1"></use></pattern></defs><g id="layer1" transform="matrix(3.77953 0 0 3.77953 -909.661 -1875.67)"><path d="M363.255 561.646 363.255 568.186 370.885 568.186 370.885 561.646Z" id="path398-5" stroke-width="0.264583" fill="#FFFFFF" fill-rule="evenodd"/><path d="M363.255 568.186 370.885 568.186 370.885 561.646 363.255 561.646Z" id="path399-2" stroke="#C0C0C0" stroke-width="0.255469" stroke-linecap="round" stroke-linejoin="round" fill="none"/><path d="M283.14 561.646 283.14 568.186 291.043 568.186 291.043 561.646Z" id="path403" stroke-width="0.264583" fill="#FFFFFF" fill-rule="evenodd"/><path d="M283.14 568.186 291.043 568.186 291.043 561.646 283.14 561.646Z" id="path404" stroke="#C0C0C0" stroke-width="0.255469" stroke-linecap="round" stroke-linejoin="round" fill="none"/><path d="M275.51 561.646 275.51 568.186 283.413 568.186 283.413 561.646Z" id="path408" stroke-width="0.264583" fill="#FFFFFF" fill-rule="evenodd"/><path d="M275.51 568.186 283.413 568.186 283.413 561.646 275.51 561.646Z" id="path409" stroke="#C0C0C0" stroke-width="0.255469" stroke-linecap="round" stroke-linejoin="round" fill="none"/><path d="M267.88 561.646 267.88 568.186 275.51 568.186 275.51 561.646Z" id="path413-6" stroke-width="0.264583" fill="#FFFFFF" fill-rule="evenodd"/><path d="M267.88 568.186 275.51 568.186 275.51 561.646 267.88 561.646Z" id="path414-9" stroke="#C0C0C0" stroke-width="0.255469" stroke-linecap="round" stroke-linejoin="round" fill="none"/><path d="M269.788 539.846 269.515 539.846" id="path454-5" stroke="#000000" stroke-width="0.0170313" stroke-linecap="round" stroke-linejoin="round" fill="none"/><path d="M266.79 539.846 266.245 539.846" id="path455-2" stroke="#000000" stroke-width="0.0170313" stroke-linecap="round" stroke-linejoin="round" fill="none"/><path d="M267.88 537.394 267.88 538.484" id="path456-7" stroke="#000000" stroke-width="0.0851562" stroke-linecap="round" stroke-linejoin="round" fill="none"/><path d="M267.88 538.484 269.788 538.484 269.788 539.846" id="path457-29" stroke="#000000" stroke-width="0.0851562" stroke-linecap="round" stroke-linejoin="round" fill="none"/><path d="M266.245 539.846 266.245 541.209" id="path458-7" stroke="#000000" stroke-width="0.0851562" stroke-linecap="round" stroke-linejoin="round" fill="none"/><path d="M266.245 541.209 267.608 541.209 267.608 542.571" id="path459-6" stroke="#000000" stroke-width="0.0851562" stroke-linecap="round" stroke-linejoin="round" fill="none"/><path d="M240.903 509.054 240.903 516.956 270.333 516.956 270.333 509.054Z" id="path460-3" stroke-width="0.264583" fill="#C0C0C0" fill-rule="evenodd"/><path d="M270.333 516.956 240.903 516.956 240.903 509.054 270.333 509.054Z" id="path461-1" stroke="#000000" stroke-width="0.442813" stroke-linecap="round" stroke-linejoin="round" fill="none"/><path d="M251.258 507.964 251.258 509.054 280.688 509.054 280.688 507.964Z" id="path462-5" stroke-width="0.264583" fill-rule="evenodd"/><path d="M280.688 509.054 251.258 509.054 251.258 507.964 280.688 507.964Z" id="path463-9" stroke="#000000" stroke-width="0.442813" stroke-linecap="round" stroke-linejoin="round" fill="none"/><path d="M282.868 508.781 287.5 508.781" id="path464-8" stroke="#000000" stroke-width="0.783437" stroke-linecap="round" stroke-linejoin="round" fill="none"/><path d="M287.228 510.416 292.133 508.781 287.228 506.874Z" id="path465-9" stroke-width="0.264583" fill-rule="evenodd"/><path d="M280.415 513.141 275.783 513.141" id="path466-5" stroke="#000000" stroke-width="0.783437" stroke-linecap="round" stroke-linejoin="round" fill="none"/><path d="M276.328 514.776 271.15 513.141 276.328 511.506Z" id="path467-4" stroke-width="0.264583" fill-rule="evenodd"/><path d="M251.53 503.059 270.333 503.059" id="path468-9" stroke="#000000" stroke-width="0.255469" stroke-linecap="round" stroke-linejoin="round" fill="none"/><path d="M251.53 497.609 251.53 505.239" id="path469-5" stroke="#000000" stroke-width="0.255469" stroke-linecap="round" stroke-linejoin="round" fill="none"/><path d="M270.333 501.151 270.333 505.239" id="path470-2" stroke="#000000" stroke-width="0.255469" stroke-linecap="round" stroke-linejoin="round" fill="none"/><text id="text474" stroke-width="0.264583" font-family="Arial" font-weight="400" font-size="2.9931" xml:space="preserve" x="255.618" y="506.874"><tspan x="255.618" y="506.874"><tspan font-size="2.9931" dx="0" dy="0">L</tspan><tspan font-size="2.9931" dx="0" dy="0">=</tspan><tspan font-size="2.9931" dx="0" dy="0">35 </tspan><tspan font-size="2.9931" dx="0" dy="0">cm</tspan></tspan></text><text id="text476" stroke-width="0.264583" font-family="Arial" font-weight="400" font-size="2.9931" xml:space="preserve" x="289.135" y="505.784"><tspan x="289.135" y="505.784"><tspan font-size="2.9931" dx="0" dy="0">P</tspan></tspan></text><path d="M251.53 500.879 256.435 500.879" id="path476-28" stroke="#000000" stroke-width="0.255469" stroke-linecap="round" stroke-linejoin="round" fill="none"/><path d="M256.163 499.789 259.705 500.879 256.163 501.969Z" id="path477-3" stroke-width="0.264583" fill-rule="evenodd"/><text id="text478" stroke-width="0.264583" font-family="Arial" font-weight="700" font-size="2.9931" xml:space="preserve" x="255.073" y="500.061"><tspan x="255.073" y="500.061"><tspan font-size="2.9931" dx="0" dy="0">x</tspan></tspan></text><text id="text480" stroke-width="0.264583" font-family="Arial" font-weight="400" font-size="2.9931" xml:space="preserve" x="285.32" y="514.776"><tspan x="285.32" y="514.776"><tspan font-size="2.9931" dx="0" dy="0">P</tspan></tspan></text><path d="M268.153 543.116 370.34 543.116" id="path480" stroke="#000000" stroke-width="0.255469" stroke-linecap="round" stroke-linejoin="round" fill="none"/><path d="M268.153 536.576 370.34 536.576" id="path481" stroke="#000000" stroke-width="0.255469" stroke-linecap="round" stroke-linejoin="round" fill="none"/><path d="M267.063 535.486 267.063 537.939 269.788 537.939 269.788 535.486Z" id="path482" stroke-width="0.264583" fill="#FFFFFF" fill-rule="evenodd"/><path d="M267.063 537.939 269.788 537.939 269.788 535.486 267.063 535.486Z" id="path483" stroke="#000000" stroke-width="0.255469" stroke-linecap="round" stroke-linejoin="round" fill="none"/><path d="M267.063 541.754 267.063 544.206 269.788 544.206 269.788 541.754Z" id="path484" stroke-width="0.264583" fill="#FFFFFF" fill-rule="evenodd"/><path d="M267.063 544.206 269.788 544.206 269.788 541.754 267.063 541.754Z" id="path485" stroke="#000000" stroke-width="0.255469" stroke-linecap="round" stroke-linejoin="round" fill="none"/><path d="M376.335 540.119 376.335 545.841 381.513 545.841 381.513 540.119Z" id="path502-4" stroke-width="0.264583" fill="url(#pattern70)" fill-rule="evenodd"/><path d="M376.335 545.841 376.335 539.846" id="path503-1" stroke="#000000" stroke-width="0.0170313" stroke-linecap="round" stroke-linejoin="round" fill="none"/><text id="text504" stroke-width="0.264583" font-family="Arial" font-weight="400" font-size="2.9931" xml:space="preserve" x="267.608" y="548.021"><tspan x="267.608" y="548.021"><tspan font-size="2.9931" dx="0" dy="0">1</tspan></tspan></text><text id="text506" stroke-width="0.264583" font-family="Arial" font-weight="400" font-size="2.9931" xml:space="preserve" x="274.42" y="548.021"><tspan x="274.42" y="548.021"><tspan font-size="2.9931" dx="0" dy="0">2</tspan></tspan></text><text id="text508-8" stroke-width="0.264583" font-family="Arial" font-weight="400" font-size="2.9931" xml:space="preserve" x="282.595" y="548.021"><tspan x="282.595" y="548.021"><tspan font-size="2.9931" dx="0" dy="0">3</tspan></tspan></text><text id="text510" stroke-width="0.264583" font-family="Arial" font-weight="400" font-size="2.9931" xml:space="preserve" x="361.893" y="548.021"><tspan x="361.893" y="548.021"><tspan font-size="2.9931" dx="0" dy="0">35</tspan></tspan></text><text id="text512" stroke-width="0.264583" font-family="Arial" font-weight="400" font-size="2.9931" xml:space="preserve" x="369.25" y="548.021"><tspan x="369.25" y="548.021"><tspan font-size="2.9931" dx="0" dy="0">36</tspan></tspan></text><text id="text515" stroke-width="0.264583" font-family="Arial" font-weight="400" font-size="2.9931" xml:space="preserve" x="265.973" y="533.306"><tspan x="265.973" y="533.306"><tspan font-size="2.9931" dx="0" dy="0">101</tspan><tspan font-size="2.9931" dx="1.81864" dy="0">102</tspan></tspan></text><text id="text517" stroke-width="0.264583" font-family="Arial" font-weight="400" font-size="2.9931" xml:space="preserve" x="280.96" y="533.306"><tspan x="280.96" y="533.306"><tspan font-size="2.9931" dx="0" dy="0">103</tspan></tspan></text><text id="text520-3" stroke-width="0.264583" font-family="Arial" font-weight="400" font-size="2.9931" xml:space="preserve" x="361.075" y="533.306"><tspan x="361.075" y="533.306"><tspan font-size="2.9931" dx="0" dy="0">135</tspan><tspan font-size="2.9931" dx="2.36364" dy="0">136</tspan></tspan></text><path d="M292.03 547.135C292.03 546.846 291.809 546.607 291.519 546.607 291.23 546.607 291.009 546.846 291.009 547.135 291.009 547.408 291.23 547.646 291.519 547.646 291.809 547.646 292.03 547.408 292.03 547.135Z" id="path524-3" stroke-width="0.264583" fill-rule="evenodd"/><path d="M292.03 547.135C292.03 546.846 291.809 546.607 291.519 546.607 291.23 546.607 291.009 546.846 291.009 547.135 291.009 547.408 291.23 547.646 291.519 547.646 291.809 547.646 292.03 547.408 292.03 547.135" id="path525-52" stroke="#000000" stroke-width="0.255469" stroke-linecap="round" stroke-linejoin="round" fill="none"/><path d="M295.369 547.135C295.369 546.846 295.13 546.607 294.858 546.607 294.568 546.607 294.33 546.846 294.33 547.135 294.33 547.408 294.568 547.646 294.858 547.646 295.13 547.646 295.369 547.408 295.369 547.135Z" id="path526-9" stroke-width="0.264583" fill-rule="evenodd"/><path d="M295.369 547.135C295.369 546.846 295.13 546.607 294.858 546.607 294.568 546.607 294.33 546.846 294.33 547.135 294.33 547.408 294.568 547.646 294.858 547.646 295.13 547.646 295.369 547.408 295.369 547.135" id="path527-1" stroke="#000000" stroke-width="0.255469" stroke-linecap="round" stroke-linejoin="round" fill="none"/><path d="M298.945 547.135C298.945 546.846 298.707 546.607 298.417 546.607 298.145 546.607 297.906 546.846 297.906 547.135 297.906 547.408 298.145 547.646 298.417 547.646 298.707 547.646 298.945 547.408 298.945 547.135Z" id="path528-5" stroke-width="0.264583" fill-rule="evenodd"/><path d="M298.945 547.135C298.945 546.846 298.707 546.607 298.417 546.607 298.145 546.607 297.906 546.846 297.906 547.135 297.906 547.408 298.145 547.646 298.417 547.646 298.707 547.646 298.945 547.408 298.945 547.135" id="path529-5" stroke="#000000" stroke-width="0.255469" stroke-linecap="round" stroke-linejoin="round" fill="none"/><path d="M372.248 536.849 376.88 536.849" id="path530-6" stroke="#000000" stroke-width="0.783437" stroke-linecap="round" stroke-linejoin="round" fill="none"/><path d="M376.608 538.484 381.513 536.849 376.608 535.214Z" id="path531-7" stroke-width="0.264583" fill-rule="evenodd"/><text id="text532" stroke-width="0.264583" font-family="Arial" font-weight="400" font-size="2.9931" xml:space="preserve" x="380.968" y="534.941"><tspan x="380.968" y="534.941"><tspan font-size="2.9931" dx="0" dy="0">P</tspan></tspan></text><path d="M376.25 542.878C376.25 541.737 375.33 540.817 374.189 540.817 373.048 540.817 372.128 541.737 372.128 542.878 372.128 544.019 373.048 544.938 374.189 544.938 375.33 544.938 376.25 544.019 376.25 542.878Z" id="path532-2" stroke-width="0.264583" fill="#FFFFFF" fill-rule="evenodd"/><path d="M376.25 542.878C376.25 541.737 375.33 540.817 374.189 540.817 373.048 540.817 372.128 541.737 372.128 542.878 372.128 544.019 373.048 544.938 374.189 544.938 375.33 544.938 376.25 544.019 376.25 542.878" id="path533-3" stroke="#000000" stroke-width="0.255469" stroke-linecap="round" stroke-linejoin="round" fill="none"/><path d="M268.153 568.186 370.34 568.186" id="path534-1" stroke="#000000" stroke-width="0.255469" stroke-linecap="round" stroke-linejoin="round" fill="none"/><path d="M268.153 561.646 370.34 561.646" id="path535-9" stroke="#000000" stroke-width="0.255469" stroke-linecap="round" stroke-linejoin="round" fill="none"/><path d="M267.063 560.556 267.063 563.009 269.788 563.009 269.788 560.556Z" id="path536-8" stroke-width="0.264583" fill="#FFFFFF" fill-rule="evenodd"/><path d="M267.063 563.009 269.788 563.009 269.788 560.556 267.063 560.556Z" id="path537-7" stroke="#000000" stroke-width="0.255469" stroke-linecap="round" stroke-linejoin="round" fill="none"/><path d="M267.063 566.824 267.063 569.276 269.788 569.276 269.788 566.824Z" id="path538-8" stroke-width="0.264583" fill="#FFFFFF" fill-rule="evenodd"/><path d="M267.063 569.276 269.788 569.276 269.788 566.824 267.063 566.824Z" id="path539-4" stroke="#000000" stroke-width="0.255469" stroke-linecap="round" stroke-linejoin="round" fill="none"/><path d="M274.148 560.556 274.148 563.009 276.873 563.009 276.873 560.556Z" id="path540-4" stroke-width="0.264583" fill="#FFFFFF" fill-rule="evenodd"/><path d="M274.148 563.009 276.873 563.009 276.873 560.556 274.148 560.556Z" id="path541-4" stroke="#000000" stroke-width="0.255469" stroke-linecap="round" stroke-linejoin="round" fill="none"/><path d="M274.148 566.824 274.148 569.276 276.873 569.276 276.873 566.824Z" id="path542-3" stroke-width="0.264583" fill="#FFFFFF" fill-rule="evenodd"/><path d="M274.148 569.276 276.873 569.276 276.873 566.824 274.148 566.824Z" id="path543-5" stroke="#000000" stroke-width="0.255469" stroke-linecap="round" stroke-linejoin="round" fill="none"/><path d="M281.778 560.556 281.778 563.009 284.503 563.009 284.503 560.556Z" id="path544-8" stroke-width="0.264583" fill="#FFFFFF" fill-rule="evenodd"/><path d="M281.778 563.009 284.503 563.009 284.503 560.556 281.778 560.556Z" id="path545-0" stroke="#000000" stroke-width="0.255469" stroke-linecap="round" stroke-linejoin="round" fill="none"/><path d="M281.778 566.824 281.778 569.276 284.503 569.276 284.503 566.824Z" id="path546-2" stroke-width="0.264583" fill="#FFFFFF" fill-rule="evenodd"/><path d="M281.778 569.276 284.503 569.276 284.503 566.824 281.778 566.824Z" id="path547-9" stroke="#000000" stroke-width="0.255469" stroke-linecap="round" stroke-linejoin="round" fill="none"/><path d="M369.25 560.556 369.25 563.009 371.975 563.009 371.975 560.556Z" id="path548-4" stroke-width="0.264583" fill="#FFFFFF" fill-rule="evenodd"/><path d="M369.25 563.009 371.975 563.009 371.975 560.556 369.25 560.556Z" id="path549-9" stroke="#000000" stroke-width="0.255469" stroke-linecap="round" stroke-linejoin="round" fill="none"/><path d="M369.25 566.824 369.25 569.276 371.975 569.276 371.975 566.824Z" id="path550-8" stroke-width="0.264583" fill="#FFFFFF" fill-rule="evenodd"/><path d="M369.25 569.276 371.975 569.276 371.975 566.824 369.25 566.824Z" id="path551-3" stroke="#000000" stroke-width="0.255469" stroke-linecap="round" stroke-linejoin="round" fill="none"/><path d="M362.165 560.556 362.165 563.009 364.89 563.009 364.89 560.556Z" id="path552-5" stroke-width="0.264583" fill="#FFFFFF" fill-rule="evenodd"/><path d="M362.165 563.009 364.89 563.009 364.89 560.556 362.165 560.556Z" id="path553-0" stroke="#000000" stroke-width="0.255469" stroke-linecap="round" stroke-linejoin="round" fill="none"/><path d="M362.165 566.824 362.165 569.276 364.89 569.276 364.89 566.824Z" id="path554-4" stroke-width="0.264583" fill="#FFFFFF" fill-rule="evenodd"/><path d="M362.165 569.276 364.89 569.276 364.89 566.824 362.165 566.824Z" id="path555-3" stroke="#000000" stroke-width="0.255469" stroke-linecap="round" stroke-linejoin="round" fill="none"/><path d="M376.335 565.189 376.335 570.639 381.513 570.639 381.513 565.189Z" id="path556-5" stroke-width="0.264583" fill="url(#pattern69)" fill-rule="evenodd"/><path d="M376.335 570.639 376.335 564.916" id="path557-2" stroke="#000000" stroke-width="0.0170313" stroke-linecap="round" stroke-linejoin="round" fill="none"/><text id="text558" stroke-width="0.264583" font-family="Arial" font-weight="400" font-size="2.9931" xml:space="preserve" x="267.608" y="572.819"><tspan x="267.608" y="572.819"><tspan font-size="2.9931" dx="0" dy="0">1</tspan></tspan></text><text id="text560" stroke-width="0.264583" font-family="Arial" font-weight="400" font-size="2.9931" xml:space="preserve" x="274.42" y="572.819"><tspan x="274.42" y="572.819"><tspan font-size="2.9931" dx="0" dy="0">2</tspan></tspan></text><text id="text562" stroke-width="0.264583" font-family="Arial" font-weight="400" font-size="2.9931" xml:space="preserve" x="282.595" y="572.819"><tspan x="282.595" y="572.819"><tspan font-size="2.9931" dx="0" dy="0">3</tspan></tspan></text><text id="text564" stroke-width="0.264583" font-family="Arial" font-weight="400" font-size="2.9931" xml:space="preserve" x="361.893" y="572.819"><tspan x="361.893" y="572.819"><tspan font-size="2.9931" dx="0" dy="0">35</tspan></tspan></text><text id="text566" stroke-width="0.264583" font-family="Arial" font-weight="400" font-size="2.9931" xml:space="preserve" x="369.25" y="572.819"><tspan x="369.25" y="572.819"><tspan font-size="2.9931" dx="0" dy="0">36</tspan></tspan></text><text id="text569" stroke-width="0.264583" font-family="Arial" font-weight="400" font-size="2.9931" xml:space="preserve" x="265.973" y="558.376"><tspan x="265.973" y="558.376"><tspan font-size="2.9931" dx="0" dy="0">101</tspan><tspan font-size="2.9931" dx="1.81864" dy="0">102</tspan></tspan></text><text id="text572" stroke-width="0.264583" font-family="Arial" font-weight="400" font-size="2.9931" xml:space="preserve" x="361.075" y="558.376"><tspan x="361.075" y="558.376"><tspan font-size="2.9931" dx="0" dy="0">135</tspan><tspan font-size="2.9931" dx="2.36364" dy="0">136</tspan></tspan></text><path d="M289.408 560.556 289.408 563.009 292.133 563.009 292.133 560.556Z" id="path572-7" stroke-width="0.264583" fill="#FFFFFF" fill-rule="evenodd"/><path d="M289.408 563.009 292.133 563.009 292.133 560.556 289.408 560.556Z" id="path573" stroke="#000000" stroke-width="0.255469" stroke-linecap="round" stroke-linejoin="round" fill="none"/><path d="M289.408 566.824 289.408 569.276 292.133 569.276 292.133 566.824Z" id="path574" stroke-width="0.264583" fill="#FFFFFF" fill-rule="evenodd"/><path d="M289.408 569.276 292.133 569.276 292.133 566.824 289.408 566.824Z" id="path575" stroke="#000000" stroke-width="0.255469" stroke-linecap="round" stroke-linejoin="round" fill="none"/><path d="M289.97 572.103C289.97 571.814 289.748 571.592 289.459 571.592 289.169 571.592 288.948 571.814 288.948 572.103 288.948 572.393 289.169 572.614 289.459 572.614 289.748 572.614 289.97 572.393 289.97 572.103Z" id="path576" stroke-width="0.264583" fill-rule="evenodd"/><path d="M289.97 572.103C289.97 571.814 289.748 571.592 289.459 571.592 289.169 571.592 288.948 571.814 288.948 572.103 288.948 572.393 289.169 572.614 289.459 572.614 289.748 572.614 289.97 572.393 289.97 572.103" id="path577" stroke="#000000" stroke-width="0.255469" stroke-linecap="round" stroke-linejoin="round" fill="none"/><path d="M293.308 572.103C293.308 571.814 293.069 571.592 292.797 571.592 292.507 571.592 292.269 571.814 292.269 572.103 292.269 572.393 292.507 572.614 292.797 572.614 293.069 572.614 293.308 572.393 293.308 572.103Z" id="path578" stroke-width="0.264583" fill-rule="evenodd"/><path d="M293.308 572.103C293.308 571.814 293.069 571.592 292.797 571.592 292.507 571.592 292.269 571.814 292.269 572.103 292.269 572.393 292.507 572.614 292.797 572.614 293.069 572.614 293.308 572.393 293.308 572.103" id="path579" stroke="#000000" stroke-width="0.255469" stroke-linecap="round" stroke-linejoin="round" fill="none"/><path d="M296.884 572.103C296.884 571.814 296.646 571.592 296.356 571.592 296.084 571.592 295.845 571.814 295.845 572.103 295.845 572.393 296.084 572.614 296.356 572.614 296.646 572.614 296.884 572.393 296.884 572.103Z" id="path580" stroke-width="0.264583" fill-rule="evenodd"/><path d="M296.884 572.103C296.884 571.814 296.646 571.592 296.356 571.592 296.084 571.592 295.845 571.814 295.845 572.103 295.845 572.393 296.084 572.614 296.356 572.614 296.646 572.614 296.884 572.393 296.884 572.103" id="path581" stroke="#000000" stroke-width="0.255469" stroke-linecap="round" stroke-linejoin="round" fill="none"/><path d="M372.248 561.646 376.88 561.646" id="path582" stroke="#000000" stroke-width="0.783437" stroke-linecap="round" stroke-linejoin="round" fill="none"/><path d="M376.608 563.554 381.513 561.646 376.608 560.011Z" id="path583" stroke-width="0.264583" fill-rule="evenodd"/><text id="text584" stroke-width="0.264583" font-family="Arial" font-weight="400" font-size="2.9931" xml:space="preserve" x="380.968" y="560.011"><tspan x="380.968" y="560.011"><tspan font-size="2.9931" dx="0" dy="0">P</tspan></tspan></text><path d="M376.25 567.845C376.25 566.704 375.33 565.785 374.189 565.785 373.048 565.785 372.128 566.704 372.128 567.845 372.128 568.987 373.048 569.906 374.189 569.906 375.33 569.906 376.25 568.987 376.25 567.845Z" id="path584" stroke-width="0.264583" fill="#FFFFFF" fill-rule="evenodd"/><path d="M376.25 567.845C376.25 566.704 375.33 565.785 374.189 565.785 373.048 565.785 372.128 566.704 372.128 567.845 372.128 568.987 373.048 569.906 374.189 569.906 375.33 569.906 376.25 568.987 376.25 567.845" id="path585" stroke="#000000" stroke-width="0.255469" stroke-linecap="round" stroke-linejoin="round" fill="none"/><path d="M386.963 499.789 386.963 514.504 407.945 514.504" id="path586-4" stroke="#000000" stroke-width="0.255469" stroke-linecap="round" stroke-linejoin="round" fill="none"/><path d="M386.145 500.061 386.963 497.609 387.78 500.061Z" id="path587-0" stroke-width="0.264583" fill-rule="evenodd"/><path d="M407.945 513.686 410.125 514.504 407.945 515.321Z" id="path588-4" stroke-width="0.264583" fill-rule="evenodd"/><text id="text589" stroke-width="0.264583" font-family="Times New Roman" font-weight="400" font-size="2.9931" xml:space="preserve" x="384.238" y="497.609"><tspan x="384.238" y="497.609"><tspan font-size="2.9931" dx="0" dy="0">τ</tspan></tspan></text><text id="text591" stroke-width="0.264583" font-family="Times New Roman" font-weight="400" font-size="2.9931" xml:space="preserve" x="381.24" y="502.514"><tspan x="381.24" y="502.514"><tspan font-size="2.9931" dx="0" dy="0">40</tspan></tspan></text><text id="text595" stroke-width="0.264583" font-family="Times New Roman" font-weight="400" font-size="2.9931" xml:space="preserve" x="401.678" y="517.501"><tspan x="401.678" y="517.501"><tspan font-size="2.9931" dx="0" dy="0">0</tspan><tspan font-size="2.9931" dx="0" dy="0">.</tspan><tspan font-size="2.9931" dx="0" dy="0">08</tspan></tspan></text><text id="text597" stroke-width="0.264583" font-family="Times New Roman" font-weight="400" font-size="2.9931" xml:space="preserve" x="410.398" y="517.501"><tspan x="410.398" y="517.501"><tspan font-size="2.9931" dx="0" dy="0">δ</tspan></tspan></text><text id="text601" stroke-width="0.264583" font-family="Times New Roman" font-weight="400" font-size="2.9931" xml:space="preserve" x="383.965" y="517.501"><tspan x="383.965" y="517.501"><tspan font-size="2.9931" dx="0" dy="0">0</tspan><tspan font-size="2.9931" dx="0" dy="0">.</tspan><tspan font-size="2.9931" dx="0" dy="0">02</tspan></tspan></text><path d="M387.235 500.879 391.868 500.879" id="path601" stroke="#C0C0C0" stroke-width="0.255469" stroke-linecap="round" stroke-linejoin="round" fill="none"/><path d="M391.595 500.606 391.595 514.504" id="path602" stroke="#C0C0C0" stroke-width="0.255469" stroke-linecap="round" stroke-linejoin="round" fill="none"/><path d="M386.963 514.504 391.868 500.606 406.038 514.504" id="path603" stroke="#000000" stroke-width="0.255469" stroke-linecap="round" stroke-linejoin="round" fill="none"/><text id="text604" stroke-width="0.264583" font-family="Arial" font-weight="700" font-size="2.9931" xml:space="preserve" x="306.848" y="551.836"><tspan x="306.848" y="551.836"><tspan font-size="2.9931" dx="0" dy="0">Model with Spring</tspan></tspan></text><text id="text610" stroke-width="0.264583" font-family="Arial" font-weight="700" font-size="2.9931" xml:space="preserve" x="296.765" y="578.541"><tspan x="296.765" y="578.541"><tspan font-size="2.9931" dx="0 0 0 0 0 0 0 0 0 0 0 0 0 0 0 0 0 0 0 0 0 0 0 0 0 0 0 0 0 0 0 0 0 0 0" dy="0 0 0 0 0 0 0 0 0 0 0 0 0 0 0 0 0 0 0 0 0 0 0 0 0 0 0 0 0 0 0 0 0 0 0">Model with Interface element (I2D4)</tspan></tspan></text><text id="text612" stroke-width="0.264583" font-family="Arial" font-weight="400" font-size="2.9931" xml:space="preserve" x="291.588" y="531.399"><tspan x="291.588" y="531.399"><tspan font-size="2.9931" dx="0" dy="0">Truss</tspan></tspan></text><text id="text614" stroke-width="0.264583" font-family="Arial" font-weight="400" font-size="2.9931" xml:space="preserve" x="300.308" y="534.396"><tspan x="300.308" y="534.396"><tspan font-size="2.9931" dx="0" dy="0">Spring</tspan></tspan></text><path d="M286.138 536.576 291.043 530.581" id="path614-8" stroke="#C0C0C0" stroke-width="0.0851562" stroke-linecap="round" stroke-linejoin="round" fill="none"/><path d="M286.955 543.389 291.043 530.581" id="path615-6" stroke="#C0C0C0" stroke-width="0.0851562" stroke-linecap="round" stroke-linejoin="round" fill="none"/><path d="M293.495 539.574 298.4 533.579" id="path616-2" stroke="#C0C0C0" stroke-width="0.0851562" stroke-linecap="round" stroke-linejoin="round" fill="none"/><text id="text617" stroke-width="0.264583" font-family="Arial" font-weight="400" font-size="2.9931" xml:space="preserve" x="283.958" y="556.196"><tspan x="283.958" y="556.196"><tspan font-size="2.9931" dx="0" dy="0">Truss</tspan></tspan></text><text id="text620" stroke-width="0.264583" font-family="Arial" font-weight="400" font-size="2.9931" xml:space="preserve" x="294.04" y="559.466"><tspan x="294.04" y="559.466"><tspan font-size="2.9931" dx="0 0 0 0" dy="0 0 0 0">I2D4</tspan></tspan></text><path d="M278.508 561.374 283.413 555.379" id="path620-8" stroke="#C0C0C0" stroke-width="0.0851562" stroke-linecap="round" stroke-linejoin="round" fill="none"/><path d="M279.325 568.459 283.413 555.379" id="path621-0" stroke="#C0C0C0" stroke-width="0.0851562" stroke-linecap="round" stroke-linejoin="round" fill="none"/><path d="M287.228 563.554 292.678 558.376" id="path622-9" stroke="#C0C0C0" stroke-width="0.0851562" stroke-linecap="round" stroke-linejoin="round" fill="none"/><text id="text641" stroke-width="0.264583" font-family="맑은 고딕" font-weight="400" font-size="3.5388" xml:space="preserve" x="340.365" y="507.146"><tspan x="340.365" y="507.146"><tspan font-size="3.5388" dx="0" dy="0">b</tspan><tspan font-size="3.5388" dx="0" dy="0">1 </tspan><tspan font-size="3.5388" dx="0" dy="0">=  </tspan><tspan font-size="3.5388" dx="0" dy="0">4</tspan><tspan font-size="3.5388" dx="0" dy="0">. </tspan><tspan font-size="3.5388" dx="0" dy="0">cm</tspan></tspan><tspan x="340.365" y="512.324"><tspan font-size="3.5388" dx="0" dy="0">E</tspan><tspan font-size="3.5388" dx="0" dy="0">1 </tspan><tspan font-size="3.5388" dx="0" dy="0">=  </tspan><tspan font-size="3.5388" dx="0" dy="0">2</tspan><tspan font-size="3.5388" dx="0" dy="0">,</tspan><tspan font-size="3.5388" dx="0" dy="0">350</tspan><tspan font-size="3.5388" dx="0" dy="0">,</tspan><tspan font-size="3.5388" dx="0" dy="0">000 </tspan><tspan font-size="3.5388" dx="0" dy="0">kgf</tspan><tspan font-size="3.5388" dx="0" dy="0">/</tspan><tspan font-size="3.5388" dx="0" dy="0">cm</tspan><tspan font-size="3.5388" dx="0" dy="0">2</tspan></tspan></text><text id="text649" stroke-width="0.264583" font-family="맑은 고딕" font-weight="400" font-size="3.5388" xml:space="preserve" x="340.365" y="516.956"><tspan x="340.365" y="516.956"><tspan font-size="3.5388" dx="0" dy="0">t</tspan><tspan font-size="3.5388" dx="0" dy="0">1 </tspan><tspan font-size="3.5388" dx="0" dy="0">=  </tspan><tspan font-size="3.5388" dx="0" dy="0">0</tspan><tspan font-size="3.5388" dx="0" dy="0">.</tspan><tspan font-size="3.5388" dx="0" dy="0">0167 </tspan><tspan font-size="3.5388" dx="0" dy="0">cm</tspan></tspan></text><text id="text666" stroke-width="0.264583" font-family="맑은 고딕" font-weight="400" font-size="3.5388" xml:space="preserve" x="301.125" y="507.146"><tspan x="301.125" y="507.146"><tspan font-size="3.5388" dx="0" dy="0">b</tspan><tspan font-size="3.5388" dx="0" dy="0">2 </tspan><tspan font-size="3.5388" dx="0" dy="0">=  </tspan><tspan font-size="3.5388" dx="0" dy="0">10</tspan><tspan font-size="3.5388" dx="0" dy="0">. </tspan><tspan font-size="3.5388" dx="0" dy="0">cm</tspan></tspan><tspan x="301.125" y="512.324"><tspan font-size="3.5388" dx="0" dy="0">E</tspan><tspan font-size="3.5388" dx="0" dy="0">2 </tspan><tspan font-size="3.5388" dx="0" dy="0">= </tspan><tspan font-size="3.5388" dx="0" dy="0">246475</tspan><tspan font-size="3.5388" dx="0" dy="0">. </tspan><tspan font-size="3.5388" dx="0" dy="0">kgf</tspan><tspan font-size="3.5388" dx="0" dy="0">/</tspan><tspan font-size="3.5388" dx="0" dy="0">cm</tspan><tspan font-size="3.5388" dx="0" dy="0">2</tspan></tspan></text><text id="text673" stroke-width="0.264583" font-family="맑은 고딕" font-weight="400" font-size="3.5388" xml:space="preserve" x="301.125" y="516.956"><tspan x="301.125" y="516.956"><tspan font-size="3.5388" dx="0" dy="0">t</tspan><tspan font-size="3.5388" dx="0" dy="0">2 </tspan><tspan font-size="3.5388" dx="0" dy="0">=  </tspan><tspan font-size="3.5388" dx="0" dy="0">10</tspan><tspan font-size="3.5388" dx="0" dy="0">. </tspan><tspan font-size="3.5388" dx="0" dy="0">cm</tspan></tspan></text><text id="text675" stroke-width="0.264583" font-family="Arial" font-weight="700" font-size="2.9931" xml:space="preserve" x="307.665" y="499.244"><tspan x="307.665" y="499.244"><tspan font-size="2.9931" dx="0" dy="0">Concrete</tspan></tspan></text><text id="text677" stroke-width="0.264583" font-family="Arial" font-weight="700" font-size="2.9931" xml:space="preserve" x="350.72" y="499.244"><tspan x="350.72" y="499.244"><tspan font-size="2.9931" dx="0" dy="0">CFRP</tspan></tspan></text><text id="text679" stroke-width="0.264583" font-family="Arial" font-weight="700" font-size="2.9931" xml:space="preserve" x="249.895" y="513.959"><tspan x="249.895" y="513.959"><tspan font-size="2.9931" dx="0" dy="0">Concrete</tspan></tspan></text><text id="text681" stroke-width="0.264583" font-family="Arial" font-weight="700" font-size="2.9931" xml:space="preserve" x="271.968" y="507.419"><tspan x="271.968" y="507.419"><tspan font-size="2.9931" dx="0" dy="0">CFRP</tspan></tspan></text><text id="text683" stroke-width="0.264583" font-family="Arial" font-weight="700" font-size="2.9931" xml:space="preserve" x="395.955" y="499.244"><tspan x="395.955" y="499.244"><tspan font-size="2.9931" dx="0" dy="0">Interface</tspan></tspan></text><path d="M266.252 539.881 266.807 539.88 267.112 539.223 267.368 540.561 267.631 539.219 267.936 540.562 268.205 539.215 268.501 540.56 268.781 539.242 269.043 540.568 269.23 539.865 269.818 539.865" id="path1302-4-3-3-7-2" stroke="#000000" stroke-width="0.202541" stroke-linejoin="bevel" fill="none"/><path d="M277.673 539.856 277.4 539.856" id="path454-5-0" stroke="#000000" stroke-width="0.0170313" stroke-linecap="round" stroke-linejoin="round" fill="none"/><path d="M274.675 539.856 274.13 539.856" id="path455-2-3" stroke="#000000" stroke-width="0.0170313" stroke-linecap="round" stroke-linejoin="round" fill="none"/><path d="M275.765 537.404 275.765 538.493" id="path456-7-4" stroke="#000000" stroke-width="0.0851562" stroke-linecap="round" stroke-linejoin="round" fill="none"/><path d="M275.765 538.493 277.673 538.493 277.673 539.856" id="path457-29-0" stroke="#000000" stroke-width="0.0851562" stroke-linecap="round" stroke-linejoin="round" fill="none"/><path d="M274.13 539.856 274.13 541.219" id="path458-7-0" stroke="#000000" stroke-width="0.0851562" stroke-linecap="round" stroke-linejoin="round" fill="none"/><path d="M274.13 541.219 275.493 541.219 275.493 542.581" id="path459-6-5" stroke="#000000" stroke-width="0.0851562" stroke-linecap="round" stroke-linejoin="round" fill="none"/><path d="M274.948 535.496 274.948 537.948 277.673 537.948 277.673 535.496Z" id="path482-31" stroke-width="0.264583" fill="#FFFFFF" fill-rule="evenodd"/><path d="M274.948 537.948 277.673 537.948 277.673 535.496 274.948 535.496Z" id="path483-06" stroke="#000000" stroke-width="0.255469" stroke-linecap="round" stroke-linejoin="round" fill="none"/><path d="M274.948 541.763 274.948 544.216 277.673 544.216 277.673 541.763Z" id="path484-75" stroke-width="0.264583" fill="#FFFFFF" fill-rule="evenodd"/><path d="M274.948 544.216 277.673 544.216 277.673 541.763 274.948 541.763Z" id="path485-00" stroke="#000000" stroke-width="0.255469" stroke-linecap="round" stroke-linejoin="round" fill="none"/><path d="M274.137 539.891 274.692 539.89 274.997 539.233 275.253 540.571 275.516 539.229 275.821 540.572 276.09 539.225 276.386 540.57 276.666 539.252 276.928 540.578 277.115 539.875 277.703 539.875" id="path1302-4-3-3-7-2-4" stroke="#000000" stroke-width="0.202541" stroke-linejoin="bevel" fill="none"/><path d="M285.506 539.988 285.233 539.988" id="path454-5-6" stroke="#000000" stroke-width="0.0170313" stroke-linecap="round" stroke-linejoin="round" fill="none"/><path d="M282.508 539.988 281.963 539.988" id="path455-2-4" stroke="#000000" stroke-width="0.0170313" stroke-linecap="round" stroke-linejoin="round" fill="none"/><path d="M283.598 537.535 283.598 538.625" id="path456-7-8" stroke="#000000" stroke-width="0.0851562" stroke-linecap="round" stroke-linejoin="round" fill="none"/><path d="M283.598 538.625 285.506 538.625 285.506 539.988" id="path457-29-2" stroke="#000000" stroke-width="0.0851562" stroke-linecap="round" stroke-linejoin="round" fill="none"/><path d="M281.963 539.988 281.963 541.35" id="path458-7-1" stroke="#000000" stroke-width="0.0851562" stroke-linecap="round" stroke-linejoin="round" fill="none"/><path d="M281.963 541.35 283.326 541.35 283.326 542.713" id="path459-6-6" stroke="#000000" stroke-width="0.0851562" stroke-linecap="round" stroke-linejoin="round" fill="none"/><path d="M282.781 535.628 282.781 538.08 285.506 538.08 285.506 535.628Z" id="path482-8" stroke-width="0.264583" fill="#FFFFFF" fill-rule="evenodd"/><path d="M282.781 538.08 285.506 538.08 285.506 535.628 282.781 535.628Z" id="path483-3" stroke="#000000" stroke-width="0.255469" stroke-linecap="round" stroke-linejoin="round" fill="none"/><path d="M282.781 541.895 282.781 544.348 285.506 544.348 285.506 541.895Z" id="path484-1" stroke-width="0.264583" fill="#FFFFFF" fill-rule="evenodd"/><path d="M282.781 544.348 285.506 544.348 285.506 541.895 282.781 541.895Z" id="path485-4" stroke="#000000" stroke-width="0.255469" stroke-linecap="round" stroke-linejoin="round" fill="none"/><path d="M281.97 540.022 282.525 540.022 282.83 539.365 283.087 540.702 283.349 539.361 283.654 540.703 283.923 539.356 284.22 540.701 284.499 539.384 284.761 540.71 284.948 540.007 285.536 540.007" id="path1302-4-3-3-7-2-8" stroke="#000000" stroke-width="0.202541" stroke-linejoin="bevel" fill="none"/><path d="M293.833 539.772 293.56 539.772" id="path454-5-7" stroke="#000000" stroke-width="0.0170313" stroke-linecap="round" stroke-linejoin="round" fill="none"/><path d="M290.836 539.772 290.29 539.772" id="path455-2-0" stroke="#000000" stroke-width="0.0170313" stroke-linecap="round" stroke-linejoin="round" fill="none"/><path d="M291.926 537.319 291.926 538.409" id="path456-7-6" stroke="#000000" stroke-width="0.0851562" stroke-linecap="round" stroke-linejoin="round" fill="none"/><path d="M291.926 538.409 293.833 538.409 293.833 539.772" id="path457-29-07" stroke="#000000" stroke-width="0.0851562" stroke-linecap="round" stroke-linejoin="round" fill="none"/><path d="M290.29 539.772 290.29 541.134" id="path458-7-05" stroke="#000000" stroke-width="0.0851562" stroke-linecap="round" stroke-linejoin="round" fill="none"/><path d="M290.29 541.134 291.653 541.134 291.653 542.497" id="path459-6-67" stroke="#000000" stroke-width="0.0851562" stroke-linecap="round" stroke-linejoin="round" fill="none"/><path d="M291.108 535.412 291.108 537.864 293.833 537.864 293.833 535.412Z" id="path482-38" stroke-width="0.264583" fill="#FFFFFF" fill-rule="evenodd"/><path d="M291.108 537.864 293.833 537.864 293.833 535.412 291.108 535.412Z" id="path483-4" stroke="#000000" stroke-width="0.255469" stroke-linecap="round" stroke-linejoin="round" fill="none"/><path d="M291.108 541.679 291.108 544.132 293.833 544.132 293.833 541.679Z" id="path484-92" stroke-width="0.264583" fill="#FFFFFF" fill-rule="evenodd"/><path d="M291.108 544.132 293.833 544.132 293.833 541.679 291.108 541.679Z" id="path485-6" stroke="#000000" stroke-width="0.255469" stroke-linecap="round" stroke-linejoin="round" fill="none"/><path d="M290.297 539.807 290.852 539.806 291.157 539.149 291.414 540.487 291.677 539.145 291.981 540.488 292.25 539.141 292.547 540.485 292.826 539.168 293.088 540.494 293.276 539.791 293.863 539.791" id="path1302-4-3-3-7-2-5" stroke="#000000" stroke-width="0.202541" stroke-linejoin="bevel" fill="none"/><path d="M269.346 565.321 269.901 565.32 270.206 564.663 270.462 566.001 270.725 564.66 271.03 566.002 271.299 564.655 271.595 566 271.875 564.683 272.137 566.009 272.324 565.306 272.912 565.306" id="path1302-4-3-3-7-2-7" stroke="#000000" stroke-width="0.202541" stroke-linejoin="bevel" fill="none"/><path d="M278.077 565.321 278.632 565.32 278.937 564.663 279.194 566.001 279.456 564.66 279.761 566.002 280.03 564.655 280.327 566 280.606 564.683 280.868 566.009 281.055 565.306 281.643 565.306" id="path1302-4-3-3-7-2-2" stroke="#000000" stroke-width="0.202541" stroke-linejoin="bevel" fill="none"/><path d="M285.75 565.252 286.305 565.251 286.61 564.594 286.866 565.932 287.129 564.591 287.434 565.933 287.703 564.586 288 565.931 288.279 564.614 288.541 565.94 288.728 565.237 289.316 565.237" id="path1302-4-3-3-7-2-1" stroke="#000000" stroke-width="0.202541" stroke-linejoin="bevel" fill="none"/><path d="M365.097 565.321 365.651 565.32 365.956 564.663 366.213 566.001 366.476 564.66 366.78 566.002 367.05 564.655 367.346 566 367.625 564.683 367.887 566.009 368.075 565.306 368.662 565.306" id="path1302-4-3-3-7-2-1-1" stroke="#000000" stroke-width="0.202541" stroke-linejoin="bevel" fill="none"/><path d="M365.006 540.004 364.733 540.004" id="path454-5-7-4" stroke="#000000" stroke-width="0.0170313" stroke-linecap="round" stroke-linejoin="round" fill="none"/><path d="M362.008 540.004 361.463 540.004" id="path455-2-0-7" stroke="#000000" stroke-width="0.0170313" stroke-linecap="round" stroke-linejoin="round" fill="none"/><path d="M363.098 537.552 363.098 538.642" id="path456-7-6-8" stroke="#000000" stroke-width="0.0851562" stroke-linecap="round" stroke-linejoin="round" fill="none"/><path d="M363.098 538.642 365.006 538.642 365.006 540.004" id="path457-29-07-3" stroke="#000000" stroke-width="0.0851562" stroke-linecap="round" stroke-linejoin="round" fill="none"/><path d="M361.463 540.004 361.463 541.367" id="path458-7-05-7" stroke="#000000" stroke-width="0.0851562" stroke-linecap="round" stroke-linejoin="round" fill="none"/><path d="M361.463 541.367 362.826 541.367 362.826 542.729" id="path459-6-67-1" stroke="#000000" stroke-width="0.0851562" stroke-linecap="round" stroke-linejoin="round" fill="none"/><path d="M362.281 535.644 362.281 538.097 365.006 538.097 365.006 535.644Z" id="path482-38-0" stroke-width="0.264583" fill="#FFFFFF" fill-rule="evenodd"/><path d="M362.281 538.097 365.006 538.097 365.006 535.644 362.281 535.644Z" id="path483-4-0" stroke="#000000" stroke-width="0.255469" stroke-linecap="round" stroke-linejoin="round" fill="none"/><path d="M362.281 541.912 362.281 544.364 365.006 544.364 365.006 541.912Z" id="path484-92-8" stroke-width="0.264583" fill="#FFFFFF" fill-rule="evenodd"/><path d="M362.281 544.364 365.006 544.364 365.006 541.912 362.281 541.912Z" id="path485-6-3" stroke="#000000" stroke-width="0.255469" stroke-linecap="round" stroke-linejoin="round" fill="none"/><path d="M361.47 540.039 362.025 540.038 362.33 539.381 362.587 540.719 362.849 539.378 363.154 540.72 363.423 539.373 363.72 540.718 363.999 539.401 364.261 540.727 364.448 540.024 365.036 540.024" id="path1302-4-3-3-7-2-5-4" stroke="#000000" stroke-width="0.202541" stroke-linejoin="bevel" fill="none"/><path d="M372.15 539.944 371.877 539.944" id="path454-5-7-5" stroke="#000000" stroke-width="0.0170313" stroke-linecap="round" stroke-linejoin="round" fill="none"/><path d="M369.152 539.944 368.607 539.944" id="path455-2-0-6" stroke="#000000" stroke-width="0.0170313" stroke-linecap="round" stroke-linejoin="round" fill="none"/><path d="M370.242 537.491 370.242 538.581" id="path456-7-6-2" stroke="#000000" stroke-width="0.0851562" stroke-linecap="round" stroke-linejoin="round" fill="none"/><path d="M370.242 538.581 372.15 538.581 372.15 539.944" id="path457-29-07-0" stroke="#000000" stroke-width="0.0851562" stroke-linecap="round" stroke-linejoin="round" fill="none"/><path d="M368.607 539.944 368.607 541.306" id="path458-7-05-3" stroke="#000000" stroke-width="0.0851562" stroke-linecap="round" stroke-linejoin="round" fill="none"/><path d="M368.607 541.306 369.97 541.306 369.97 542.669" id="path459-6-67-5" stroke="#000000" stroke-width="0.0851562" stroke-linecap="round" stroke-linejoin="round" fill="none"/><path d="M369.425 535.584 369.425 538.036 372.15 538.036 372.15 535.584Z" id="path482-38-6" stroke-width="0.264583" fill="#FFFFFF" fill-rule="evenodd"/><path d="M369.425 538.036 372.15 538.036 372.15 535.584 369.425 535.584Z" id="path483-4-6" stroke="#000000" stroke-width="0.255469" stroke-linecap="round" stroke-linejoin="round" fill="none"/><path d="M369.425 541.851 369.425 544.304 372.15 544.304 372.15 541.851Z" id="path484-92-6" stroke-width="0.264583" fill="#FFFFFF" fill-rule="evenodd"/><path d="M369.425 544.304 372.15 544.304 372.15 541.851 369.425 541.851Z" id="path485-6-7" stroke="#000000" stroke-width="0.255469" stroke-linecap="round" stroke-linejoin="round" fill="none"/><path d="M368.614 539.978 369.169 539.978 369.474 539.321 369.73 540.658 369.993 539.317 370.298 540.659 370.567 539.312 370.863 540.657 371.143 539.34 371.405 540.666 371.592 539.963 372.18 539.963" id="path1302-4-3-3-7-2-5-6" stroke="#000000" stroke-width="0.202541" stroke-linejoin="bevel" fill="none"/></g><g id="g1" transform="translate(-909.661 -1875.67)"></g></svg>