<svg width="602" height="318" xmlns="http://www.w3.org/2000/svg" xmlns:xlink="http://www.w3.org/1999/xlink" overflow="hidden"><defs><clipPath id="clip0"><rect x="0" y="0" width="602" height="318"/></clipPath></defs><g clip-path="url(#clip0)"><text font-family="Times New Roman,Times New Roman_MSFontService,sans-serif" font-style="italic" font-weight="400" font-size="4" transform="matrix(6.40302 0 0 6.24446 245.605 263)">E<tspan font-size="2" x="2.26037" y="0.480426">sec</tspan><tspan font-size="4" x="-17.302" y="-10.5694">E</tspan><tspan font-size="2" x="-15.0416" y="-10.0889">sec</tspan></text><path d="M429.04 948.575 429.04 1140.85 781.148 1140.85" stroke="#000000" stroke-width="0.396904" stroke-linecap="round" stroke-linejoin="round" fill="none" transform="matrix(1 0 0 1.41596 -360.464 -1323.51)"/><path d="M604.101 1344.85 607.504 1332.94 610.908 1344.85 604.101 1344.85Z" fill-rule="evenodd" transform="matrix(1.02539 0 0 1 -554.353 -1323.51)"/><path d="M1104.38 1612 1116.28 1615.4 1104.38 1618.81 1104.38 1612Z" fill-rule="evenodd" transform="matrix(1.02539 0 0 1 -717.838 -1323.51)"/><text font-family="Times New Roman,Times New Roman_MSFontService,sans-serif" font-style="italic" font-weight="400" font-size="4" transform="matrix(6.40301 0 0 6.24446 39.6706 68)">f<tspan font-size="4" x="0.0342863" y="19.6975">f</tspan><tspan font-size="2" x="0.45845" y="1.44128">c</tspan><tspan font-size="2" x="0.492737" y="20.9786">c</tspan><tspan font-size="2" x="1.62587" y="1.44128">m</tspan><tspan font-style="normal" font-size="4" x="-6.32308" y="20.338">0</tspan><tspan font-style="normal" font-size="4" x="-4.52342" y="20.338">.</tspan><tspan font-style="normal" font-size="4" x="-3.11034" y="20.338">4</tspan></text><path d="M709.601 1399.3 709.601 1615.4" stroke="#C0C0C0" stroke-width="0.562001" stroke-linecap="round" stroke-linejoin="round" fill="none" transform="matrix(1.02539 0 0 1 -554.353 -1323.51)"/><path d="M606.755 1614.55C616.365 1539.02 626.75 1472.26 672.166 1416.32L673.015 1416.53C680.034 1408.02 688.114 1399.83 697.687 1395.9L698.111 1395.79C706.092 1392.49 715.446 1391.86 723.214 1394.19L723.851 1394.19C736.29 1397.7 746.824 1407.49 755.542 1416.32L755.86 1417.06C775.324 1437.69 799.784 1480.55 799.784 1480.55" stroke="#000000" stroke-width="1.686" stroke-linecap="round" stroke-linejoin="round" fill="none" transform="matrix(1.07059 0 0 1 -581.776 -1323.51)"/><path d="M828.819 1536.03 828.819 1656.42" stroke="#C0C0C0" stroke-width="0.576271" stroke-linecap="round" stroke-linejoin="round" fill="none" transform="matrix(1 0 0 1.08522 -554.353 -1505.69)"/><path d="M704.493 1392.49 607.504 1392.49" stroke="#C0C0C0" stroke-width="0.562001" stroke-linecap="round" stroke-linejoin="round" fill="none" transform="matrix(1.02539 0 0 1 -554.353 -1323.51)"/><path d="M79.4923 147.012 59.6201 147.012" stroke="#C0C0C0" stroke-width="0.0551545" stroke-linecap="round" stroke-linejoin="round" fill="none" transform="matrix(1 0 0 10.1896 9.17483 -1310.7)"/><path d="M814.677 1500.54C814.677 1497.57 812.547 1495.12 809.887 1495.12 807.121 1495.12 804.998 1497.57 804.998 1500.54 804.998 1503.52 807.121 1506.08 809.887 1506.08 812.547 1506.08 814.677 1503.52 814.677 1500.54" stroke="#000000" stroke-width="0.562001" stroke-linecap="round" stroke-linejoin="round" fill="none" transform="matrix(1.02539 0 0 1 -554.457 -1344.84)"/><path d="M714.172 1393.66C714.172 1390.58 712.043 1388.13 709.389 1388.13 706.729 1388.13 704.493 1390.58 704.493 1393.66 704.493 1396.64 706.729 1399.09 709.389 1399.09 712.043 1399.09 714.172 1396.64 714.172 1393.66Z" fill="#FFFFFF" fill-rule="evenodd" transform="matrix(1.02539 0 0 1 -554.353 -1323.51)"/><path d="M714.172 1393.66C714.172 1390.58 712.043 1388.13 709.389 1388.13 706.729 1388.13 704.493 1390.58 704.493 1393.66 704.493 1396.64 706.729 1399.09 709.389 1399.09 712.043 1399.09 714.172 1396.64 714.172 1393.66" stroke="#000000" stroke-width="0.562001" stroke-linecap="round" stroke-linejoin="round" fill="none" transform="matrix(1.02539 0 0 1 -554.353 -1323.51)"/><text font-family="Times New Roman,Times New Roman_MSFontService,sans-serif" font-style="italic" font-weight="400" font-size="4" transform="matrix(6.40301 0 0 6.24446 265.089 307)">ε<tspan font-size="2" x="1.31715" y="0.80071">cu</tspan><tspan font-size="4" x="-15.7336" y="0.320284">ε</tspan><tspan font-size="2" x="-14.4164" y="1.12099">co</tspan></text><path d="M706.198 1401 607.504 1612" stroke="#C0C0C0" stroke-width="0.562001" stroke-linecap="round" stroke-linejoin="round" fill="none" transform="matrix(1.02539 0 0 1 -554.353 -1323.51)"/><path d="M663.655 1516.71 655.15 1511.61 665.359 1511.61 663.655 1516.71Z" fill-rule="evenodd" transform="matrix(1.02539 0 0 1 -554.353 -1323.51)"/><path d="M699.392 1538.83 643.235 1538.83" stroke="#C0C0C0" stroke-width="0.562001" stroke-linecap="round" stroke-linejoin="round" fill="none" transform="matrix(1.02539 0 0 1 -554.353 -1323.51)"/><path d="M486.195 209.868C484.263 201.557 484.316 193.147 470.417 185.485" stroke="#000000" stroke-width="0.105257" stroke-linecap="round" stroke-linejoin="round" fill="none" transform="matrix(1.04083 0 0 1 -363.525 5.45209)"/><path d="M630.555 272.181C628.05 261.404 628.119 250.497 610.092 240.559" stroke="#000000" stroke-width="0.13651" stroke-linecap="round" stroke-linejoin="round" fill="none" transform="matrix(1.22548 0 0 1 -665.778 19.7114)"/><path d="M453.663 195.825C451.861 188.071 451.91 180.224 438.94 173.074" stroke="#000000" stroke-width="0.0982145" stroke-linecap="round" stroke-linejoin="round" fill="none" transform="matrix(1.27324 0 0 1 -436.881 -126.844)"/><path d="M556.456 221.784 549.65 216.676 559.859 216.676 556.456 221.784Z" fill-rule="evenodd" transform="matrix(1.02539 0 0 1 -446.84 -173)"/><text font-family="Times New Roman,Times New Roman_MSFontService,sans-serif" font-style="italic" font-weight="400" font-size="4" transform="matrix(6.40302 0 0 6.24446 100.728 273)">E<tspan font-size="2" x="2.17075" y="0.480426">c</tspan><tspan font-size="2" x="3.29598" y="0.480426">i</tspan><tspan font-size="4" x="5.54867" y="-35.5515">E</tspan><tspan font-size="2" x="7.71942" y="-34.911">c</tspan></text><path d="M523.304-57.1533 462.753 213.111" stroke="#C0C0C0" stroke-width="0.468342" stroke-linecap="round" stroke-linejoin="round" fill="none" transform="matrix(1.19698 0.074282 0.075021 1.00658 -501.262 39.6014)"/><text font-family="Times New Roman,Times New Roman_MSFontService,sans-serif" font-style="italic" font-weight="400" font-size="7" transform="matrix(2.0254 0 0 1.97524 52.3738 23)">c<tspan font-size="12" x="-3.9377" y="-3.0376">f</tspan></text><text font-family="Times New Roman,Times New Roman_MSFontService,sans-serif" font-style="italic" font-weight="400" font-size="8" transform="matrix(1.69413 0 0 1.65218 405.786 317)">c<tspan font-size="13" x="-6.72203" y="-3.02631">ε</tspan></text><path d="M3424.32 181.11C3424.32 183.855 3422.09 186.081 3419.35 186.081 3416.6 186.081 3414.38 183.855 3414.38 181.11 3414.38 178.364 3416.6 176.139 3419.35 176.139 3422.09 176.139 3424.32 178.364 3424.32 181.11Z" stroke="#000000" stroke-width="0.892538" stroke-linecap="round" stroke-miterlimit="1" fill="#FFFFFF" fill-rule="evenodd" transform="matrix(1.00034 0 0 1 -3331.84 7.65645)"/><path d="M624.521 1586.48 616.009 1581.37 626.219 1581.37 624.521 1586.48Z" fill-rule="evenodd" transform="matrix(1.02539 0 0 1 -558.596 -1323.65)"/><text font-family="Cambria Math,Cambria Math_MSFontService,sans-serif" font-weight="400" font-size="83" transform="matrix(0.266646 0 0 0.266801 323.304 48)">𝐸</text><text font-family="Cambria Math,Cambria Math_MSFontService,sans-serif" font-weight="400" font-size="58" transform="matrix(0.266646 0 0 0.266555 335.901 52)">𝑐<tspan font-family="Cambria,Cambria_MSFontService,sans-serif" font-style="italic" font-size="58" x="23.2227" y="3.75157">i</tspan></text><text font-family="Cambria Math,Cambria Math_MSFontService,sans-serif" font-weight="400" font-size="83" transform="matrix(0.266646 0 0 0.266801 356.902 48)">=<tspan font-size="83" x="85.0001" y="0">1</tspan><tspan font-size="83" x="132" y="0">.</tspan><tspan font-size="83" x="149" y="0">1</tspan><tspan font-size="83" x="195" y="0">𝐸</tspan><tspan font-size="58" x="242" y="14.9924">𝑐</tspan></text><text font-family="Cambria,Cambria_MSFontService,sans-serif" font-style="italic" font-weight="400" font-size="58" transform="matrix(0.266646 0 0 0.266555 342.093 89)">i</text><text font-family="Cambria Math,Cambria Math_MSFontService,sans-serif" font-weight="400" font-size="58" transform="matrix(0.266646 0 0 0.266801 335.901 89)">𝑐<tspan font-family="Arial,Arial_MSFontService,sans-serif" font-size="83" x="478.861" y="-153.672">f</tspan><tspan font-family="Arial,Arial_MSFontService,sans-serif" font-size="83" x="501.693" y="-153.672">o</tspan><tspan font-family="Arial,Arial_MSFontService,sans-serif" font-size="83" x="548.137" y="-153.672">r</tspan><tspan font-family="Arial,Arial_MSFontService,sans-serif" font-size="83" x="575.394" y="-153.672"> </tspan><tspan font-family="Arial,Arial_MSFontService,sans-serif" font-size="83" x="599.238" y="-153.672">K</tspan><tspan font-family="Arial,Arial_MSFontService,sans-serif" font-size="83" x="654.629" y="-153.672">D</tspan><tspan font-family="Arial,Arial_MSFontService,sans-serif" font-size="83" x="715.058" y="-153.672">S</tspan><tspan font-family="Arial,Arial_MSFontService,sans-serif" font-size="83" x="770.349" y="-153.672"> </tspan><tspan font-family="Arial,Arial_MSFontService,sans-serif" font-size="83" x="793.193" y="-153.672">L</tspan><tspan font-family="Arial,Arial_MSFontService,sans-serif" font-size="83" x="839.514" y="-153.672">S</tspan><tspan font-family="Arial,Arial_MSFontService,sans-serif" font-size="83" x="894.514" y="-153.672">D</tspan><tspan font-size="83" x="-47.2397" y="-14.9924">𝐸</tspan><tspan font-size="83" x="78.7601" y="-14.9924">=</tspan><tspan font-size="83" x="163.76" y="-14.9924">1</tspan><tspan font-size="83" x="210.76" y="-14.9924">.</tspan><tspan font-size="83" x="227.76" y="-14.9924">05</tspan><tspan font-size="83" x="319.76" y="-14.9924">𝐸</tspan><tspan font-size="58" x="366.76" y="3.74811">𝑐</tspan><tspan font-family="Arial,Arial_MSFontService,sans-serif" font-size="83" x="484.76" y="-14.9924">f</tspan><tspan font-family="Arial,Arial_MSFontService,sans-serif" font-size="83" x="507.592" y="-14.9924">o</tspan><tspan font-family="Arial,Arial_MSFontService,sans-serif" font-size="83" x="554.036" y="-14.9924">r</tspan><tspan font-family="Arial,Arial_MSFontService,sans-serif" font-size="83" x="581.293" y="-14.9924"> </tspan><tspan font-family="Arial,Arial_MSFontService,sans-serif" font-size="83" x="605.137" y="-14.9924">E</tspan><tspan font-family="Arial,Arial_MSFontService,sans-serif" font-size="83" x="661.282" y="-14.9924">C</tspan><tspan font-family="Arial,Arial_MSFontService,sans-serif" font-size="83" x="722.006" y="-14.9924">2</tspan></text></g></svg>